<?xml version="1.0" encoding="UTF-8"?>
<svg version="1.1" xmlns="http://www.w3.org/2000/svg" width="800" height="800">
<path d="M0 0 C2.01056612 0.06085254 4.02119085 0.11978922 6.03186035 0.17712402 C12.21187766 0.35370954 18.39025567 0.55421837 24.56820679 0.79272461 C26.43444614 0.8634706 28.30088891 0.92908888 30.16751099 0.9888916 C32.68195484 1.07253033 35.19416762 1.18036958 37.70733643 1.29559326 C38.42837051 1.31552841 39.1494046 1.33546356 39.89228821 1.35600281 C46.16747612 1.69217607 51.32266012 3.89523294 56.13311768 7.94793701 C56.66292236 8.57184326 57.19272705 9.19574951 57.73858643 9.83856201 C58.55262939 10.75895264 58.55262939 10.75895264 59.38311768 11.69793701 C69.41224892 27.23674289 65.07181569 52.17067281 65.05681109 69.97090518 C65.05452417 73.99337164 65.05805273 78.01583396 65.06079102 82.03829956 C65.06521221 89.8929095 65.06428876 97.74750983 65.06137837 105.60212014 C65.05911072 111.98887951 65.0588177 118.3756362 65.05990219 124.76239586 C65.06013204 126.13107439 65.06013204 126.13107439 65.06036653 127.52740299 C65.06068629 129.38154787 65.0610105 131.23569275 65.06133913 133.08983763 C65.06418301 150.42966586 65.06092364 167.76948878 65.05553876 185.10931613 C65.05106795 199.96560061 65.05185106 214.82187728 65.05645752 229.67816162 C65.0618161 246.96796554 65.06391237 264.25776482 65.06084526 281.54756945 C65.06052673 283.39298197 65.06021236 285.23839448 65.05990219 287.08380699 C65.05974792 287.99158845 65.05959364 288.89936992 65.05943469 289.83465991 C65.05857367 296.21123958 65.06002339 302.5878163 65.06238174 308.96439552 C65.06519403 316.73842828 65.06441123 324.51245094 65.059101 332.28648255 C65.05648383 336.24762001 65.05542515 340.20874069 65.05875015 344.16987801 C65.06175399 347.80346556 65.06005304 351.43702092 65.0547726 355.0706056 C65.05314594 356.9907777 65.05636925 358.91095207 65.05982983 360.83112174 C65.02636454 375.81736187 64.93093956 389.13154241 54.92608643 401.08856201 C48.8434496 406.15742603 40.98857916 405.1548295 33.57061768 404.63934326 C22.51072234 403.92740949 11.44212229 403.74304509 0.36358643 403.52606201 C-1.72691448 403.48273641 -3.81740935 403.43911841 -5.90789795 403.39520264 C-10.96317342 403.28962805 -16.01851336 403.18797583 -21.07391357 403.08856201 C-21.35823242 403.98784424 -21.64255127 404.88712646 -21.93548584 405.81365967 C-23.49947459 410.31276862 -25.71085287 414.30422794 -28.01141357 418.46356201 C-28.74122437 419.78432739 -28.74122437 419.78432739 -29.48577881 421.1317749 C-34.1796298 429.49040837 -39.40951382 437.36172909 -45.07391357 445.08856201 C-45.49527588 445.66686768 -45.91663818 446.24517334 -46.35076904 446.84100342 C-51.6884092 454.11695101 -57.43862681 460.86213232 -63.60906982 467.43621826 C-65.56940225 469.54567265 -67.4344604 471.67802143 -69.26141357 473.90106201 C-72.50690787 477.7257805 -76.23941295 480.87043627 -80.07391357 484.08856201 C-80.94918701 484.85168701 -81.82446045 485.61481201 -82.72625732 486.40106201 C-120.53442312 518.88056014 -165.52237059 529.98696896 -214.57879639 526.62640381 C-246.26832707 524.02506649 -277.12422721 516.76041155 -307.13641357 506.46356201 C-307.78978699 506.23980896 -308.4431604 506.01605591 -309.11633301 505.78552246 C-318.29300314 502.62038124 -327.17367135 498.94842882 -336.07391357 495.08856201 C-331.96154444 518.22114338 -327.69313392 541.31554169 -323.10125732 564.35809326 C-322.67987254 566.47770227 -322.25853676 568.59732102 -321.83724976 570.71694946 C-320.12487918 579.32440966 -318.40882398 587.93109831 -316.67669678 596.53460693 C-315.59430665 601.9131686 -314.52303617 607.29384308 -313.45898628 612.67606163 C-313.05769444 614.69466195 -312.65224089 616.71243992 -312.24238396 618.72931862 C-311.67692169 621.51351174 -311.12567036 624.30017347 -310.57757568 627.08782959 C-310.40888474 627.90055832 -310.24019379 628.71328705 -310.06639099 629.55064392 C-309.14518267 634.3293726 -308.95118649 638.26366387 -310.07391357 643.08856201 C-312.25109402 645.74200068 -313.82947142 646.86988286 -317.23016357 647.46746826 C-321.20387987 647.67277694 -323.51673363 647.40864411 -327.01141357 645.40106201 C-331.27717299 640.61824085 -331.37561329 635.56128611 -331.76141357 629.40106201 C-332.54728793 619.54118365 -334.30688607 609.9429508 -336.32391357 600.27606201 C-336.47797668 599.53695587 -336.63203979 598.79784973 -336.79077148 598.03634644 C-338.67474109 589.06912463 -340.77758805 580.19377357 -343.13641357 571.33856201 C-345.58672103 562.06395818 -347.1937672 552.75302608 -348.63665771 543.28149414 C-349.01091802 540.84179238 -349.39716961 538.40426997 -349.7868042 535.96697998 C-350.97200744 528.50491584 -352.09822192 521.05523409 -352.97193909 513.54956055 C-354.44291726 494.988743 -354.44291726 494.988743 -364.15594482 480.17449951 C-368.78076371 477.22134473 -375.36461464 473.08856201 -381.07391357 473.08856201 C-381.01856445 473.72543945 -380.96321533 474.36231689 -380.90618896 475.01849365 C-380.64462443 478.06227746 -380.39056515 481.10665057 -380.13641357 484.15106201 C-380.04940186 485.15072998 -379.96239014 486.15039795 -379.8727417 487.18035889 C-378.28889638 506.36248556 -377.90832124 525.55604624 -377.94354248 544.79632568 C-377.94892545 548.2837556 -377.94354404 551.77105771 -377.93719482 555.25848389 C-377.93478988 566.37907541 -378.02851897 577.45833626 -378.78494263 588.55699158 C-379.2974586 596.60658179 -379.81773885 606.96404854 -375.24188232 613.84246826 C-373.27528599 615.87993293 -371.40043255 617.48908021 -369.07391357 619.08856201 C-364.7669652 622.23841978 -361.45541953 624.70414977 -360.57391357 630.21356201 C-361.07391357 633.08856201 -361.07391357 633.08856201 -362.69573975 634.74920654 C-371.21954659 639.54969975 -387.36301637 635.53875448 -396.78167725 634.48944092 C-399.26818682 634.21280847 -401.75578367 633.94858131 -404.24383545 633.68621826 C-408.85890854 633.19304636 -413.46698292 632.6522912 -418.07391357 632.08856201 C-419.29675049 631.94386475 -420.5195874 631.79916748 -421.77947998 631.65008545 C-423.37348633 631.43013916 -423.37348633 631.43013916 -424.99969482 631.20574951 C-425.89728516 631.08570557 -426.79487549 630.96566162 -427.71966553 630.84197998 C-430.83113751 629.84623151 -432.09701571 628.68916103 -434.07391357 626.08856201 C-437.92904876 614.4617571 -437.64976047 601.57663605 -437.98168945 589.46600342 C-438.14058344 583.86233518 -438.35357303 578.26072696 -438.56610107 572.65887451 C-438.62868607 571.00024384 -438.62868607 571.00024384 -438.6925354 569.30810547 C-440.11553787 532.74947258 -445.55617858 496.36805767 -450.07391357 460.08856201 C-450.22835937 461.21157715 -450.38280518 462.33459229 -450.54193115 463.49163818 C-454.64320218 493.19636737 -459.18215991 522.8168026 -463.98241615 552.41529465 C-464.45145093 555.30941213 -464.91855713 558.20383957 -465.38555908 561.09828568 C-465.70443787 563.06842847 -466.02667206 565.03802728 -466.34906006 567.00759888 C-469.37414921 585.04842346 -469.37414921 585.04842346 -470.32391357 603.27606201 C-470.33551514 604.32116943 -470.33551514 604.32116943 -470.34735107 605.38739014 C-470.33215968 609.3865258 -469.95775162 612.53874475 -468.07391357 616.08856201 C-466.10404729 617.91772356 -464.21895739 619.49617141 -462.07391357 621.08856201 C-461.03364014 621.86973389 -461.03364014 621.86973389 -459.97235107 622.66668701 C-458.5890212 623.70292685 -457.20131265 624.73335997 -455.80828857 625.75653076 C-454.07391357 627.08856201 -454.07391357 627.08856201 -452.07391357 629.08856201 C-451.69891357 632.02606201 -451.69891357 632.02606201 -452.07391357 635.08856201 C-454.43709273 637.58371754 -455.86046394 638.0649782 -459.29998779 638.44500732 C-460.56343018 638.43566162 -461.82687256 638.42631592 -463.12860107 638.41668701 C-463.81858688 638.41522171 -464.50857269 638.41375641 -465.21946716 638.4122467 C-467.46301749 638.40300094 -469.70559601 638.37149806 -471.94891357 638.33856201 C-473.49309685 638.32597916 -475.03728672 638.31418274 -476.58148193 638.30316162 C-488.41989051 638.19742612 -500.26296476 637.9349576 -512.07391357 637.08856201 C-513.28216797 637.0303125 -513.28216797 637.0303125 -514.51483154 636.97088623 C-518.21759654 636.71237852 -520.45632668 636.52646941 -523.53094482 634.34637451 C-525.22236638 631.87133233 -526.02915625 629.8671951 -526.76141357 626.96356201 C-526.99215576 626.09473389 -527.22289795 625.22590576 -527.46063232 624.33074951 C-529.07742723 615.78336245 -529.23101693 607.24156641 -529.19110107 598.56512451 C-529.18649368 596.79221542 -529.18649368 596.79221542 -529.18179321 594.98348999 C-529.12467196 583.9651388 -528.76327805 572.96671711 -528.33395386 561.95761108 C-527.54383392 541.51394949 -526.97963637 521.07125793 -526.60125732 500.61590576 C-526.58225309 499.59262114 -526.56324886 498.56933651 -526.54366875 497.51504326 C-526.4659994 493.32328562 -526.38882718 489.13151904 -526.31199932 484.9397459 C-525.1801826 423.21052692 -525.1801826 423.21052692 -523.51141357 392.77606201 C-523.44729279 391.59629791 -523.383172 390.41653381 -523.31710815 389.20101929 C-523.13822506 385.97943042 -522.95107715 382.75851778 -522.75750732 379.53778076 C-522.70339691 378.61983734 -522.6492865 377.70189392 -522.59353638 376.75613403 C-522.5399295 375.92441681 -522.48632263 375.09269958 -522.43109131 374.23577881 C-522.38604965 373.52463425 -522.341008 372.81348969 -522.29460144 372.08079529 C-522.06567062 370.01414972 -521.62359067 368.09175357 -521.07391357 366.08856201 C-521.78934326 365.83977295 -522.50477295 365.59098389 -523.24188232 365.33465576 C-533.33748121 360.89259225 -541.67119852 351.48027073 -546.23016357 341.57684326 C-552.46533115 322.72700794 -546.50018531 302.00183074 -538.02703857 284.91229248 C-532.81995179 274.9489374 -525.53961803 266.41286336 -518.07391357 258.08856201 C-517.28629639 257.20426514 -516.4986792 256.31996826 -515.68719482 255.40887451 C-509.31834462 248.6287722 -503.6720366 245.48515244 -494.44891357 244.33856201 C-489.31543207 243.46981899 -486.67578152 241.91408163 -483.51141357 237.77606201 C-479.90649416 231.03643007 -477.70825696 222.73809847 -478.07391357 215.08856201 C-479.04328857 214.69668701 -480.01266357 214.30481201 -481.01141357 213.90106201 C-484.07391357 212.08856201 -484.07391357 212.08856201 -484.94891357 209.40106201 C-484.99016357 208.63793701 -485.03141357 207.87481201 -485.07391357 207.08856201 C-485.73391357 207.08856201 -486.39391357 207.08856201 -487.07391357 207.08856201 C-488.50727589 201.7373427 -489.48376172 196.59664598 -490.07391357 191.08856201 C-491.72391357 190.75856201 -493.37391357 190.42856201 -495.07391357 190.08856201 C-494.74391357 188.43856201 -494.41391357 186.78856201 -494.07391357 185.08856201 C-491.10391357 184.09856201 -491.10391357 184.09856201 -488.07391357 183.08856201 C-491.04391357 182.09856201 -491.04391357 182.09856201 -494.07391357 181.08856201 C-493.94891357 179.21356201 -493.94891357 179.21356201 -493.07391357 177.08856201 C-490.01141357 175.83856201 -490.01141357 175.83856201 -487.07391357 175.08856201 C-487.40391357 173.76856201 -487.73391357 172.44856201 -488.07391357 171.08856201 C-482.70884268 169.2557302 -478.44510461 168.91340272 -472.82391357 169.40106201 C-472.11750732 169.44940186 -471.41110107 169.4977417 -470.68328857 169.54754639 C-467.6281406 169.77610386 -464.991785 170.1159382 -462.07391357 171.08856201 C-461.08391357 170.42856201 -460.09391357 169.76856201 -459.07391357 169.08856201 C-456.38641357 169.46356201 -456.38641357 169.46356201 -454.07391357 170.08856201 C-453.74391357 171.40856201 -453.41391357 172.72856201 -453.07391357 174.08856201 C-451.42391357 174.41856201 -449.77391357 174.74856201 -448.07391357 175.08856201 C-447.74391357 176.40856201 -447.41391357 177.72856201 -447.07391357 179.08856201 C-443.91755807 180.20970805 -443.91755807 180.20970805 -440.07391357 180.08856201 C-437.31924639 178.12593444 -435.25816015 175.65359734 -433.07391357 173.08856201 C-431.40724691 171.42189535 -429.74058024 169.75522868 -428.07391357 168.08856201 C-427.54797607 167.51621826 -427.02203857 166.94387451 -426.48016357 166.35418701 C-411.09237014 150.05355837 -387.52574762 137.3003341 -366.07391357 131.08856201 C-365.08391357 131.08856201 -364.09391357 131.08856201 -363.07391357 131.08856201 C-363.07613419 130.26204132 -363.0783548 129.43552063 -363.0806427 128.58395386 C-363.10106371 120.61839734 -363.11609342 112.65285015 -363.12572575 104.68727303 C-363.1308449 100.59657764 -363.13772999 96.50590465 -363.14935303 92.41522217 C-363.17980285 81.30584529 -363.16213869 70.19766054 -363.07391357 59.08856201 C-363.06808006 58.29636765 -363.06224655 57.50417328 -363.05623627 56.68797302 C-363.01870384 52.00869264 -362.95635961 47.33075009 -362.86111259 42.6522789 C-362.83422866 41.21569048 -362.81348512 39.77897065 -362.79963875 38.34219742 C-362.68170657 27.1592626 -361.71561701 15.83727766 -353.58563232 7.42059326 C-348.62797563 3.05221876 -344.12007226 2.0104236 -337.67938232 1.80731201 C-336.53268066 1.77057373 -335.385979 1.73383545 -334.20452881 1.69598389 C-332.90330078 1.66053467 -331.60207275 1.62508545 -330.26141357 1.58856201 C-329.56234894 1.56866211 -328.8632843 1.54876221 -328.14303589 1.52825928 C-303.47702844 0.83272746 -278.80060707 0.52572319 -254.12762451 0.1863203 C-249.34687878 0.12048506 -244.5661666 0.05264222 -239.78547001 -0.01666641 C-77.909367 -2.35978281 -77.909367 -2.35978281 0 0 Z " fill="#FEFEFE" transform="translate(639.0739135742188,74.91143798828125)"/>
<path d="M0 0 C2.01056612 0.06085254 4.02119085 0.11978922 6.03186035 0.17712402 C12.21187766 0.35370954 18.39025567 0.55421837 24.56820679 0.79272461 C26.43444614 0.8634706 28.30088891 0.92908888 30.16751099 0.9888916 C32.68195484 1.07253033 35.19416762 1.18036958 37.70733643 1.29559326 C38.42837051 1.31552841 39.1494046 1.33546356 39.89228821 1.35600281 C46.16747612 1.69217607 51.32266012 3.89523294 56.13311768 7.94793701 C56.66292236 8.57184326 57.19272705 9.19574951 57.73858643 9.83856201 C58.55262939 10.75895264 58.55262939 10.75895264 59.38311768 11.69793701 C69.41224892 27.23674289 65.07181569 52.17067281 65.05681109 69.97090518 C65.05452417 73.99337164 65.05805273 78.01583396 65.06079102 82.03829956 C65.06521221 89.8929095 65.06428876 97.74750983 65.06137837 105.60212014 C65.05911072 111.98887951 65.0588177 118.3756362 65.05990219 124.76239586 C65.06013204 126.13107439 65.06013204 126.13107439 65.06036653 127.52740299 C65.06068629 129.38154787 65.0610105 131.23569275 65.06133913 133.08983763 C65.06418301 150.42966586 65.06092364 167.76948878 65.05553876 185.10931613 C65.05106795 199.96560061 65.05185106 214.82187728 65.05645752 229.67816162 C65.0618161 246.96796554 65.06391237 264.25776482 65.06084526 281.54756945 C65.06052673 283.39298197 65.06021236 285.23839448 65.05990219 287.08380699 C65.05974792 287.99158845 65.05959364 288.89936992 65.05943469 289.83465991 C65.05857367 296.21123958 65.06002339 302.5878163 65.06238174 308.96439552 C65.06519403 316.73842828 65.06441123 324.51245094 65.059101 332.28648255 C65.05648383 336.24762001 65.05542515 340.20874069 65.05875015 344.16987801 C65.06175399 347.80346556 65.06005304 351.43702092 65.0547726 355.0706056 C65.05314594 356.9907777 65.05636925 358.91095207 65.05982983 360.83112174 C65.02636454 375.81736187 64.93093956 389.13154241 54.92608643 401.08856201 C48.8434496 406.15742603 40.98857916 405.1548295 33.57061768 404.63934326 C22.51072234 403.92740949 11.44212229 403.74304509 0.36358643 403.52606201 C-1.72691448 403.48273641 -3.81740935 403.43911841 -5.90789795 403.39520264 C-10.96317342 403.28962805 -16.01851336 403.18797583 -21.07391357 403.08856201 C-21.35823242 403.98784424 -21.64255127 404.88712646 -21.93548584 405.81365967 C-23.49947459 410.31276862 -25.71085287 414.30422794 -28.01141357 418.46356201 C-28.74122437 419.78432739 -28.74122437 419.78432739 -29.48577881 421.1317749 C-34.1796298 429.49040837 -39.40951382 437.36172909 -45.07391357 445.08856201 C-45.49527588 445.66686768 -45.91663818 446.24517334 -46.35076904 446.84100342 C-51.6884092 454.11695101 -57.43862681 460.86213232 -63.60906982 467.43621826 C-65.56940225 469.54567265 -67.4344604 471.67802143 -69.26141357 473.90106201 C-72.50690787 477.7257805 -76.23941295 480.87043627 -80.07391357 484.08856201 C-80.94918701 484.85168701 -81.82446045 485.61481201 -82.72625732 486.40106201 C-120.53442312 518.88056014 -165.52237059 529.98696896 -214.57879639 526.62640381 C-246.26832707 524.02506649 -277.12422721 516.76041155 -307.13641357 506.46356201 C-307.78978699 506.23980896 -308.4431604 506.01605591 -309.11633301 505.78552246 C-318.29300314 502.62038124 -327.17367135 498.94842882 -336.07391357 495.08856201 C-331.96154444 518.22114338 -327.69313392 541.31554169 -323.10125732 564.35809326 C-322.67987254 566.47770227 -322.25853676 568.59732102 -321.83724976 570.71694946 C-320.12487918 579.32440966 -318.40882398 587.93109831 -316.67669678 596.53460693 C-315.59430665 601.9131686 -314.52303617 607.29384308 -313.45898628 612.67606163 C-313.05769444 614.69466195 -312.65224089 616.71243992 -312.24238396 618.72931862 C-311.67692169 621.51351174 -311.12567036 624.30017347 -310.57757568 627.08782959 C-310.40888474 627.90055832 -310.24019379 628.71328705 -310.06639099 629.55064392 C-309.14518267 634.3293726 -308.95118649 638.26366387 -310.07391357 643.08856201 C-312.25109402 645.74200068 -313.82947142 646.86988286 -317.23016357 647.46746826 C-321.20387987 647.67277694 -323.51673363 647.40864411 -327.01141357 645.40106201 C-331.27717299 640.61824085 -331.37561329 635.56128611 -331.76141357 629.40106201 C-332.54728793 619.54118365 -334.30688607 609.9429508 -336.32391357 600.27606201 C-336.47797668 599.53695587 -336.63203979 598.79784973 -336.79077148 598.03634644 C-338.67474109 589.06912463 -340.77758805 580.19377357 -343.13641357 571.33856201 C-345.58672103 562.06395818 -347.1937672 552.75302608 -348.63665771 543.28149414 C-349.01091802 540.84179238 -349.39716961 538.40426997 -349.7868042 535.96697998 C-350.97200744 528.50491584 -352.09822192 521.05523409 -352.97193909 513.54956055 C-354.44291726 494.988743 -354.44291726 494.988743 -364.15594482 480.17449951 C-368.78076371 477.22134473 -375.36461464 473.08856201 -381.07391357 473.08856201 C-381.01856445 473.72543945 -380.96321533 474.36231689 -380.90618896 475.01849365 C-380.64462443 478.06227746 -380.39056515 481.10665057 -380.13641357 484.15106201 C-380.04940186 485.15072998 -379.96239014 486.15039795 -379.8727417 487.18035889 C-378.28889638 506.36248556 -377.90832124 525.55604624 -377.94354248 544.79632568 C-377.94892545 548.2837556 -377.94354404 551.77105771 -377.93719482 555.25848389 C-377.93478988 566.37907541 -378.02851897 577.45833626 -378.78494263 588.55699158 C-379.2974586 596.60658179 -379.81773885 606.96404854 -375.24188232 613.84246826 C-373.27528599 615.87993293 -371.40043255 617.48908021 -369.07391357 619.08856201 C-364.7669652 622.23841978 -361.45541953 624.70414977 -360.57391357 630.21356201 C-361.07391357 633.08856201 -361.07391357 633.08856201 -362.69573975 634.74920654 C-371.21954659 639.54969975 -387.36301637 635.53875448 -396.78167725 634.48944092 C-399.26818682 634.21280847 -401.75578367 633.94858131 -404.24383545 633.68621826 C-408.85890854 633.19304636 -413.46698292 632.6522912 -418.07391357 632.08856201 C-419.29675049 631.94386475 -420.5195874 631.79916748 -421.77947998 631.65008545 C-423.37348633 631.43013916 -423.37348633 631.43013916 -424.99969482 631.20574951 C-425.89728516 631.08570557 -426.79487549 630.96566162 -427.71966553 630.84197998 C-430.83113751 629.84623151 -432.09701571 628.68916103 -434.07391357 626.08856201 C-437.92904876 614.4617571 -437.64976047 601.57663605 -437.98168945 589.46600342 C-438.14058344 583.86233518 -438.35357303 578.26072696 -438.56610107 572.65887451 C-438.62868607 571.00024384 -438.62868607 571.00024384 -438.6925354 569.30810547 C-440.11553787 532.74947258 -445.55617858 496.36805767 -450.07391357 460.08856201 C-450.22835937 461.21157715 -450.38280518 462.33459229 -450.54193115 463.49163818 C-454.64320218 493.19636737 -459.18215991 522.8168026 -463.98241615 552.41529465 C-464.45145093 555.30941213 -464.91855713 558.20383957 -465.38555908 561.09828568 C-465.70443787 563.06842847 -466.02667206 565.03802728 -466.34906006 567.00759888 C-469.37414921 585.04842346 -469.37414921 585.04842346 -470.32391357 603.27606201 C-470.33551514 604.32116943 -470.33551514 604.32116943 -470.34735107 605.38739014 C-470.33215968 609.3865258 -469.95775162 612.53874475 -468.07391357 616.08856201 C-466.10404729 617.91772356 -464.21895739 619.49617141 -462.07391357 621.08856201 C-461.03364014 621.86973389 -461.03364014 621.86973389 -459.97235107 622.66668701 C-458.5890212 623.70292685 -457.20131265 624.73335997 -455.80828857 625.75653076 C-454.07391357 627.08856201 -454.07391357 627.08856201 -452.07391357 629.08856201 C-451.69891357 632.02606201 -451.69891357 632.02606201 -452.07391357 635.08856201 C-454.43709273 637.58371754 -455.86046394 638.0649782 -459.29998779 638.44500732 C-460.56343018 638.43566162 -461.82687256 638.42631592 -463.12860107 638.41668701 C-463.81858688 638.41522171 -464.50857269 638.41375641 -465.21946716 638.4122467 C-467.46301749 638.40300094 -469.70559601 638.37149806 -471.94891357 638.33856201 C-473.49309685 638.32597916 -475.03728672 638.31418274 -476.58148193 638.30316162 C-488.41989051 638.19742612 -500.26296476 637.9349576 -512.07391357 637.08856201 C-513.28216797 637.0303125 -513.28216797 637.0303125 -514.51483154 636.97088623 C-518.21759654 636.71237852 -520.45632668 636.52646941 -523.53094482 634.34637451 C-525.22236638 631.87133233 -526.02915625 629.8671951 -526.76141357 626.96356201 C-526.99215576 626.09473389 -527.22289795 625.22590576 -527.46063232 624.33074951 C-529.07742723 615.78336245 -529.23101693 607.24156641 -529.19110107 598.56512451 C-529.18649368 596.79221542 -529.18649368 596.79221542 -529.18179321 594.98348999 C-529.12467196 583.9651388 -528.76327805 572.96671711 -528.33395386 561.95761108 C-527.54383392 541.51394949 -526.97963637 521.07125793 -526.60125732 500.61590576 C-526.58225309 499.59262114 -526.56324886 498.56933651 -526.54366875 497.51504326 C-526.4659994 493.32328562 -526.38882718 489.13151904 -526.31199932 484.9397459 C-525.1801826 423.21052692 -525.1801826 423.21052692 -523.51141357 392.77606201 C-523.44729279 391.59629791 -523.383172 390.41653381 -523.31710815 389.20101929 C-523.13822506 385.97943042 -522.95107715 382.75851778 -522.75750732 379.53778076 C-522.70339691 378.61983734 -522.6492865 377.70189392 -522.59353638 376.75613403 C-522.5399295 375.92441681 -522.48632263 375.09269958 -522.43109131 374.23577881 C-522.38604965 373.52463425 -522.341008 372.81348969 -522.29460144 372.08079529 C-522.06567062 370.01414972 -521.62359067 368.09175357 -521.07391357 366.08856201 C-521.78934326 365.83977295 -522.50477295 365.59098389 -523.24188232 365.33465576 C-533.33748121 360.89259225 -541.67119852 351.48027073 -546.23016357 341.57684326 C-552.46533115 322.72700794 -546.50018531 302.00183074 -538.02703857 284.91229248 C-532.81995179 274.9489374 -525.53961803 266.41286336 -518.07391357 258.08856201 C-517.28629639 257.20426514 -516.4986792 256.31996826 -515.68719482 255.40887451 C-509.31834462 248.6287722 -503.6720366 245.48515244 -494.44891357 244.33856201 C-489.31543207 243.46981899 -486.67578152 241.91408163 -483.51141357 237.77606201 C-479.90649416 231.03643007 -477.70825696 222.73809847 -478.07391357 215.08856201 C-479.04328857 214.69668701 -480.01266357 214.30481201 -481.01141357 213.90106201 C-484.07391357 212.08856201 -484.07391357 212.08856201 -484.94891357 209.40106201 C-484.99016357 208.63793701 -485.03141357 207.87481201 -485.07391357 207.08856201 C-485.73391357 207.08856201 -486.39391357 207.08856201 -487.07391357 207.08856201 C-488.50727589 201.7373427 -489.48376172 196.59664598 -490.07391357 191.08856201 C-491.72391357 190.75856201 -493.37391357 190.42856201 -495.07391357 190.08856201 C-494.74391357 188.43856201 -494.41391357 186.78856201 -494.07391357 185.08856201 C-491.10391357 184.09856201 -491.10391357 184.09856201 -488.07391357 183.08856201 C-491.04391357 182.09856201 -491.04391357 182.09856201 -494.07391357 181.08856201 C-493.94891357 179.21356201 -493.94891357 179.21356201 -493.07391357 177.08856201 C-490.01141357 175.83856201 -490.01141357 175.83856201 -487.07391357 175.08856201 C-487.40391357 173.76856201 -487.73391357 172.44856201 -488.07391357 171.08856201 C-482.70884268 169.2557302 -478.44510461 168.91340272 -472.82391357 169.40106201 C-472.11750732 169.44940186 -471.41110107 169.4977417 -470.68328857 169.54754639 C-467.6281406 169.77610386 -464.991785 170.1159382 -462.07391357 171.08856201 C-461.08391357 170.42856201 -460.09391357 169.76856201 -459.07391357 169.08856201 C-456.38641357 169.46356201 -456.38641357 169.46356201 -454.07391357 170.08856201 C-453.74391357 171.40856201 -453.41391357 172.72856201 -453.07391357 174.08856201 C-451.42391357 174.41856201 -449.77391357 174.74856201 -448.07391357 175.08856201 C-447.74391357 176.40856201 -447.41391357 177.72856201 -447.07391357 179.08856201 C-443.91755807 180.20970805 -443.91755807 180.20970805 -440.07391357 180.08856201 C-437.31924639 178.12593444 -435.25816015 175.65359734 -433.07391357 173.08856201 C-431.40724691 171.42189535 -429.74058024 169.75522868 -428.07391357 168.08856201 C-427.54797607 167.51621826 -427.02203857 166.94387451 -426.48016357 166.35418701 C-411.09237014 150.05355837 -387.52574762 137.3003341 -366.07391357 131.08856201 C-365.08391357 131.08856201 -364.09391357 131.08856201 -363.07391357 131.08856201 C-363.07613419 130.26204132 -363.0783548 129.43552063 -363.0806427 128.58395386 C-363.10106371 120.61839734 -363.11609342 112.65285015 -363.12572575 104.68727303 C-363.1308449 100.59657764 -363.13772999 96.50590465 -363.14935303 92.41522217 C-363.17980285 81.30584529 -363.16213869 70.19766054 -363.07391357 59.08856201 C-363.06808006 58.29636765 -363.06224655 57.50417328 -363.05623627 56.68797302 C-363.01870384 52.00869264 -362.95635961 47.33075009 -362.86111259 42.6522789 C-362.83422866 41.21569048 -362.81348512 39.77897065 -362.79963875 38.34219742 C-362.68170657 27.1592626 -361.71561701 15.83727766 -353.58563232 7.42059326 C-348.62797563 3.05221876 -344.12007226 2.0104236 -337.67938232 1.80731201 C-336.53268066 1.77057373 -335.385979 1.73383545 -334.20452881 1.69598389 C-332.90330078 1.66053467 -331.60207275 1.62508545 -330.26141357 1.58856201 C-329.56234894 1.56866211 -328.8632843 1.54876221 -328.14303589 1.52825928 C-303.47702844 0.83272746 -278.80060707 0.52572319 -254.12762451 0.1863203 C-249.34687878 0.12048506 -244.5661666 0.05264222 -239.78547001 -0.01666641 C-77.909367 -2.35978281 -77.909367 -2.35978281 0 0 Z M-360.07391357 32.08856201 C-360.25715766 155.09425532 -360.25715766 155.09425532 -359.07391357 278.08856201 C-354.12391357 279.40856201 -349.17391357 280.72856201 -344.07391357 282.08856201 C-339.58864487 283.97488997 -335.36869161 285.85764845 -331.07391357 288.08856201 C-330.07746826 288.60160889 -329.08102295 289.11465576 -328.05438232 289.64324951 C-306.76855972 301.304421 -290.91167085 320.83921829 -283.67474365 344.03363037 C-278.18933263 363.61111681 -280.1169171 383.85467632 -289.07391357 402.08856201 C-289.07391357 402.74856201 -289.07391357 403.40856201 -289.07391357 404.08856201 C-255.56539033 404.25480035 -222.07498512 404.20764105 -188.57391357 403.43231201 C-187.5009096 403.40760912 -187.5009096 403.40760912 -186.40622878 403.38240719 C-179.06043702 403.21293479 -171.7147794 403.03810466 -164.36919397 402.85992789 C-148.00710777 402.46322748 -131.64428332 402.10143598 -115.28094482 401.76043701 C-114.11785431 401.7361656 -114.11785431 401.7361656 -112.93126702 401.71140385 C-82.5409311 401.08030869 -52.15896751 400.80396086 -21.76141357 400.83856201 C-19.69297283 400.83963324 -17.62453207 400.84069136 -15.55609131 400.84173584 C-10.7552762 400.84564193 -5.95453805 400.85687733 -1.1537571 400.87535858 C0.56283349 400.88193517 2.27942887 400.88738392 3.99602699 400.89154816 C11.91755034 400.91491152 19.7790597 400.99255274 27.66445923 401.85368347 C31.5184755 402.25393764 35.366571 402.35042537 39.23858643 402.40106201 C40.37650635 402.44456787 40.37650635 402.44456787 41.53741455 402.48895264 C47.59737205 402.55727826 51.08548296 400.85867904 55.50030518 396.55340576 C62.46858718 386.99341185 62.35101209 375.77762124 62.25079346 364.42205811 C62.24830481 362.8716853 62.24716321 361.32130985 62.24725342 359.77093506 C62.24456353 356.45179445 62.23242708 353.13287594 62.21271133 349.81379318 C62.18145162 344.54906871 62.17137788 339.28442696 62.16384888 334.0196228 C62.14939554 325.67847008 62.12050701 317.33743882 62.08560169 308.99634898 C62.02367172 294.09294169 61.98585112 279.18946431 61.95400894 264.28596556 C61.94229019 259.06969609 61.92419462 253.85350098 61.90049386 248.6372726 C61.88649565 245.36965447 61.87674146 242.10203198 61.86785889 238.83439636 C61.86286394 237.33861689 61.85609787 235.84284191 61.84725571 234.34708023 C61.79850522 225.95282336 62.01736254 217.63459208 62.56241512 209.25729764 C62.9826944 202.65075171 63.06730001 196.06473333 63.05548096 189.44500732 C63.05723328 188.19497925 63.0589856 186.94495117 63.06079102 185.65704346 C63.06439445 182.27961836 63.06360893 178.90225598 63.06041193 175.52483463 C63.05783247 171.9307403 63.06024209 168.33664818 63.0617981 164.74255371 C63.06360849 158.69089291 63.06124826 152.63924438 63.05645752 146.58758545 C63.05106656 139.7005053 63.05274412 132.813455 63.05828393 125.92637563 C63.06290765 119.92720013 63.06342021 113.92803333 63.06084526 107.92885661 C63.05907251 103.79448865 63.05952683 99.66014022 63.06452203 95.52577448 C63.06932822 74.35242722 62.49854782 53.26963364 61.92608643 32.08856201 C-77.33391357 32.08856201 -216.59391357 32.08856201 -360.07391357 32.08856201 Z " fill="#010101" transform="translate(639.0739135742188,74.91143798828125)"/>
<path d="M0 0 C-0.81295578 4.62174011 -2.49085528 8.38364314 -4.6875 12.5 C-5.07687744 13.2312207 -5.46625488 13.96244141 -5.86743164 14.71582031 C-15.86661455 33.02304916 -28.26783879 50.15163644 -42.53515625 65.34765625 C-44.49548868 67.45711064 -46.36054683 69.58945942 -48.1875 71.8125 C-51.43299429 75.63721848 -55.16549937 78.78187426 -59 82 C-59.87527344 82.763125 -60.75054688 83.52625 -61.65234375 84.3125 C-99.46050954 116.79199813 -144.44845702 127.89840695 -193.50488281 124.5378418 C-225.1944135 121.93650448 -256.05031364 114.67184954 -286.0625 104.375 C-286.71587341 104.15124695 -287.36924683 103.9274939 -288.04241943 103.69696045 C-312.86444878 95.13555122 -312.86444878 95.13555122 -317 91 C-317.54068065 88.11835037 -317.98678938 85.27752514 -318.375 82.375 C-319.50065065 74.49694632 -321.15951958 66.97328961 -323.328125 59.3203125 C-324.01423304 55.92966231 -324.35586882 54.17445478 -323 51 C-319.06345768 47.80994274 -314.88069743 46.015266 -310.1875 44.1875 C-303.94076716 41.62780714 -299.04717144 38.45785952 -294 34 C-293.26394531 33.40574219 -292.52789062 32.81148438 -291.76953125 32.19921875 C-285.05319143 26.61575552 -278.45388691 19.62636537 -274.92200947 11.52834225 C-273.53886641 8.5949697 -272.2217709 6.37261621 -270 4 C-265.71936991 2.53978671 -261.59819104 2.73240573 -257.11206055 2.85961914 C-255.1145883 2.85385273 -253.11711606 2.84807876 -251.11964464 2.84203196 C-248.9714063 2.84514543 -246.82474376 2.87285558 -244.67679787 2.90774345 C-240.12301947 2.98086342 -235.57079224 2.98453062 -231.01652527 2.97608948 C-226.22174681 2.96987727 -221.42716868 2.96722102 -216.63241673 2.98683453 C-201.14049453 3.04700355 -185.66587178 2.73376569 -170.17935562 2.35523605 C-165.6119061 2.24411214 -161.04426935 2.14308239 -156.47653198 2.04458618 C-155.71725186 2.02819355 -154.95797175 2.01180093 -154.17568314 1.99491155 C-152.63991718 1.96177806 -151.10415077 1.92866487 -149.56838393 1.89557195 C-145.72907567 1.81249789 -141.8898043 1.72777051 -138.05053711 1.64282227 C-137.28959775 1.62599069 -136.52865839 1.60915912 -135.74466026 1.5918175 C-130.33486079 1.47187731 -124.9251158 1.34961811 -119.51538086 1.22680664 C-110.30857384 1.01815879 -101.10164491 0.81575448 -91.89453125 0.62109375 C-90.78267448 0.5975335 -90.78267448 0.5975335 -89.64835596 0.5734973 C-59.76299705 -0.05569871 -29.89177797 -0.17203894 0 0 Z " fill="#FAAF3F" transform="translate(618,477)"/>
<path d="M0 0 C0.17316456 13.458255 0.33949033 26.91658806 0.5 40.375 C0.51187725 41.37054901 0.5237545 42.36609802 0.53599167 43.39181519 C0.9418061 77.59678091 1.13820729 111.79263312 1 146 C0.38264984 146.02178314 -0.23470032 146.04356628 -0.87075806 146.06600952 C-3.71880915 146.17025561 -6.56639158 146.28429372 -9.4140625 146.3984375 C-10.38480713 146.43251709 -11.35555176 146.46659668 -12.35571289 146.50170898 C-32.2526063 147.32623491 -49.65376628 153.71131894 -66 165 C-67.22817643 165.81399607 -68.457155 166.62678543 -69.6875 167.4375 C-70.8321875 168.2109375 -70.8321875 168.2109375 -72 169 C-72.33 168.01 -72.66 167.02 -73 166 C-73.36738281 167.34384766 -73.36738281 167.34384766 -73.7421875 168.71484375 C-75.08993403 172.23488982 -76.48472524 173.91762546 -79.125 176.5625 C-88.94074126 187.08838331 -95.51622201 200.06488804 -99 214 C-106.67165744 215.6519228 -113.97221823 216.32538732 -121.8125 216.25 C-122.85986328 216.24105713 -123.90722656 216.23211426 -124.98632812 216.22290039 C-147.88890432 215.88120302 -147.88890432 215.88120302 -154.58203125 208.98828125 C-156.86199031 205.79131387 -157.56989393 202.85637479 -158 199 C-158.10699219 198.24589844 -158.21398437 197.49179687 -158.32421875 196.71484375 C-158.58234841 194.81407078 -158.79564601 192.90730393 -159 191 C-159.91333852 200.16302602 -159.91333852 200.16302602 -156.5 208.375 C-155.37537095 209.62255362 -154.20694901 210.83190128 -153 212 C-152.12988281 212.88751953 -152.12988281 212.88751953 -151.2421875 213.79296875 C-144.10980774 220.55231609 -133.0261412 228.5226087 -122.8984375 229.125 C-117.13945984 228.79940409 -112.54559875 226.60679184 -107.48046875 223.9609375 C-104.75783401 222.90618452 -103.67649475 222.96434003 -101 224 C-101.66 224.99 -102.32 225.98 -103 227 C-103.38499891 228.65549531 -103.72793135 230.3222433 -104 232 C-103.11957031 231.79503906 -102.23914063 231.59007812 -101.33203125 231.37890625 C-99.58986328 230.97478516 -99.58986328 230.97478516 -97.8125 230.5625 C-96.66394531 230.29566406 -95.51539063 230.02882813 -94.33203125 229.75390625 C-91.56076125 229.12687799 -88.78908126 228.54100823 -86 228 C-90.0409188 232.69267989 -94.26908345 234.7650674 -100 237 C-96.58860997 238.09651823 -93.79344419 237.94215473 -90.25 237.5625 C-88.77273437 237.40974609 -88.77273437 237.40974609 -87.265625 237.25390625 C-86.51796875 237.17011719 -85.7703125 237.08632813 -85 237 C-85 237.66 -85 238.32 -85 239 C-89.29 239.99 -93.58 240.98 -98 242 C-98 242.99 -98 243.98 -98 245 C-93.38 244.67 -88.76 244.34 -84 244 C-84.33 244.99 -84.66 245.98 -85 247 C-88.96 247.33 -92.92 247.66 -97 248 C-97 248.99 -97 249.98 -97 251 C-93.37 251 -89.74 251 -86 251 C-86 251.66 -86 252.32 -86 253 C-98.89841295 255.88485761 -108.83442276 253.1698282 -120.85302734 248.75195312 C-123.96195853 247.6630848 -127.12761342 246.83607701 -130.3125 246 C-147.99153278 241.04497697 -168.35850327 230.53771731 -179 215 C-185.44960978 202.15977076 -187.41232935 184.67724431 -183.37963867 170.83666992 C-178.73814081 157.23352235 -171.50383583 144.76492174 -162 134 C-161.2678125 133.14792969 -160.535625 132.29585937 -159.78125 131.41796875 C-151.41308343 121.86049084 -143.64525572 113.64301705 -130.25 112.75 C-125.99718704 111.76858162 -124.28263711 110.07893141 -121.578125 106.72265625 C-117.75117672 100.12022319 -115.63585749 91.61786128 -116 84 C-116.969375 83.608125 -117.93875 83.21625 -118.9375 82.8125 C-122 81 -122 81 -122.875 78.3125 C-122.91625 77.549375 -122.9575 76.78625 -123 76 C-123.66 76 -124.32 76 -125 76 C-126.43336231 70.64878069 -127.40984815 65.50808397 -128 60 C-129.65 59.67 -131.3 59.34 -133 59 C-132.67 57.35 -132.34 55.7 -132 54 C-130.02 53.34 -128.04 52.68 -126 52 C-127.98 51.34 -129.96 50.68 -132 50 C-131.875 48.125 -131.875 48.125 -131 46 C-127.9375 44.75 -127.9375 44.75 -125 44 C-125.495 42.02 -125.495 42.02 -126 40 C-120.63492911 38.16716819 -116.37119103 37.8248407 -110.75 38.3125 C-110.04359375 38.36083984 -109.3371875 38.40917969 -108.609375 38.45898438 C-105.55422702 38.68754185 -102.91787142 39.02737619 -100 40 C-99.01 39.34 -98.02 38.68 -97 38 C-94.3125 38.375 -94.3125 38.375 -92 39 C-91.505 40.98 -91.505 40.98 -91 43 C-89.35 43.33 -87.7 43.66 -86 44 C-85.505 45.98 -85.505 45.98 -85 48 C-81.8436445 49.12114604 -81.8436445 49.12114604 -78 49 C-75.24533282 47.03737243 -73.18424658 44.56503532 -71 42 C-69.33333333 40.33333333 -67.66666667 38.66666667 -66 37 C-65.4740625 36.42765625 -64.948125 35.8553125 -64.40625 35.265625 C-50.53134555 20.56763299 -20.9351131 0 0 0 Z " fill="#080808" transform="translate(277,206)"/>
<path d="M0 0 C2.01056612 0.06085254 4.02119085 0.11978922 6.03186035 0.17712402 C12.21187766 0.35370954 18.39025567 0.55421837 24.56820679 0.79272461 C26.43444614 0.8634706 28.30088891 0.92908888 30.16751099 0.9888916 C32.68195484 1.07253033 35.19416762 1.18036958 37.70733643 1.29559326 C38.42837051 1.31552841 39.1494046 1.33546356 39.89228821 1.35600281 C46.16747612 1.69217607 51.32266012 3.89523294 56.13311768 7.94793701 C56.66292236 8.57184326 57.19272705 9.19574951 57.73858643 9.83856201 C58.28128174 10.45215576 58.82397705 11.06574951 59.38311768 11.69793701 C69.41224892 27.23674289 65.07181569 52.17067281 65.05681109 69.97090518 C65.05452417 73.99337164 65.05805273 78.01583396 65.06079102 82.03829956 C65.06521221 89.8929095 65.06428876 97.74750983 65.06137837 105.60212014 C65.05911072 111.98887951 65.0588177 118.3756362 65.05990219 124.76239586 C65.06005542 125.67484821 65.06020866 126.58730057 65.06036653 127.52740299 C65.06068629 129.38154787 65.0610105 131.23569275 65.06133913 133.08983763 C65.06418301 150.42966586 65.06092364 167.76948878 65.05553876 185.10931613 C65.05106795 199.96560061 65.05185106 214.82187728 65.05645752 229.67816162 C65.0618161 246.96796554 65.06391237 264.25776482 65.06084526 281.54756945 C65.06052673 283.39298197 65.06021236 285.23839448 65.05990219 287.08380699 C65.05974792 287.99158845 65.05959364 288.89936992 65.05943469 289.83465991 C65.05857367 296.21123958 65.06002339 302.5878163 65.06238174 308.96439552 C65.06519403 316.73842828 65.06441123 324.51245094 65.059101 332.28648255 C65.05648383 336.24762001 65.05542515 340.20874069 65.05875015 344.16987801 C65.06175399 347.80346556 65.06005304 351.43702092 65.0547726 355.0706056 C65.05314594 356.9907777 65.05636925 358.91095207 65.05982983 360.83112174 C65.02636454 375.81736187 64.93093956 389.13154241 54.92608643 401.08856201 C48.77035131 406.21834128 40.73042084 405.15087901 33.22686768 404.63934326 C24.10823303 404.06663089 14.99726749 403.73775153 5.86358643 403.52606201 C4.54180893 403.49429367 4.54180893 403.49429367 3.19332886 403.46188354 C-34.21416336 402.6049386 -71.65935531 403.00568957 -109.07391357 403.08856201 C-106.62287293 400.63752137 -105.89287114 400.80152255 -102.51361084 400.67889404 C-101.51651596 400.64077606 -100.51942108 400.60265808 -99.49211121 400.56338501 C-98.36539505 400.53302155 -97.23867889 400.50265808 -96.07781982 400.47137451 C-94.86598526 400.43384064 -93.6541507 400.39630676 -92.40559387 400.3576355 C-73.51027736 399.82449566 -54.59654633 399.93870052 -35.69573975 399.95819092 C-30.08362953 399.96394724 -24.47156655 399.96055659 -18.85945797 399.95461845 C-14.48667548 399.95099597 -10.11390412 399.95215816 -5.74112129 399.95474625 C-3.67085324 399.95540775 -1.60058414 399.95461463 0.46968269 399.95226669 C19.85791831 399.93505623 19.85791831 399.93505623 27.80783081 400.85121155 C31.61074246 401.27732766 35.41520822 401.35106142 39.23858643 401.40106201 C40.37650635 401.44456787 40.37650635 401.44456787 41.53741455 401.48895264 C46.82151065 401.54853048 49.72100799 400.55901831 53.92608643 397.08856201 C61.73560135 387.9402731 61.35116875 375.79537225 61.25079346 364.42205811 C61.24830481 362.8716853 61.24716321 361.32130985 61.24725342 359.77093506 C61.24456353 356.45179445 61.23242708 353.13287594 61.21271133 349.81379318 C61.18145162 344.54906871 61.17137788 339.28442696 61.16384888 334.0196228 C61.14939554 325.67847008 61.12050701 317.33743882 61.08560169 308.99634898 C61.02367172 294.09294169 60.98585112 279.18946431 60.95400894 264.28596556 C60.94229019 259.06969609 60.92419462 253.85350098 60.90049386 248.6372726 C60.88649565 245.36965447 60.87674146 242.10203198 60.86785889 238.83439636 C60.86286394 237.33861689 60.85609787 235.84284191 60.84725571 234.34708023 C60.8432085 233.6501997 60.8391613 232.95331917 60.83499146 232.23532104 C60.83092789 231.63576347 60.82686432 231.0362059 60.82267761 230.41847992 C60.83614479 221.20819245 61.38114763 212.35252148 61.92608643 203.08856201 C61.92608643 146.65856201 61.92608643 90.22856201 61.92608643 32.08856201 C-77.33391357 32.08856201 -216.59391357 32.08856201 -360.07391357 32.08856201 C-359.74391357 93.46856201 -359.41391357 154.84856201 -359.07391357 218.08856201 C-359.07391357 236.23856201 -359.07391357 254.38856201 -359.07391357 273.08856201 C-359.73391357 273.08856201 -360.39391357 273.08856201 -361.07391357 273.08856201 C-362.34697661 213.38968334 -363.15435934 153.67056242 -363.19684982 93.95760345 C-363.19886228 91.76933895 -363.20259201 89.58108362 -363.20675659 87.39282227 C-363.22114168 78.65645936 -363.1906007 69.9214973 -363.09602356 61.1855011 C-363.08083236 59.7447485 -363.06697914 58.30398137 -363.054245 56.86320496 C-363.01297851 52.25097567 -362.94926664 47.63992063 -362.85683823 43.02842331 C-362.8301957 41.5706836 -362.80969221 40.11281544 -362.79608536 38.65489578 C-362.68130125 27.37990076 -361.80027413 15.92492017 -353.58563232 7.42059326 C-348.62797563 3.05221876 -344.12007226 2.0104236 -337.67938232 1.80731201 C-336.53268066 1.77057373 -335.385979 1.73383545 -334.20452881 1.69598389 C-332.25268677 1.64281006 -332.25268677 1.64281006 -330.26141357 1.58856201 C-329.56234894 1.56866211 -328.8632843 1.54876221 -328.14303589 1.52825928 C-303.47702844 0.83272746 -278.80060707 0.52572319 -254.12762451 0.1863203 C-249.34687878 0.12048506 -244.5661666 0.05264222 -239.78547001 -0.01666641 C-77.909367 -2.35978281 -77.909367 -2.35978281 0 0 Z " fill="#000000" transform="translate(639.0739135742188,74.91143798828125)"/>
<path d="M0 0 C3.57527426 2.78928903 6.80214123 5.79044888 10 9 C10.63292969 9.57363281 11.26585937 10.14726562 11.91796875 10.73828125 C20.00901871 18.22205594 24.82910318 27.56246462 28 38 C28.2990625 38.86496094 28.598125 39.72992188 28.90625 40.62109375 C30.95439253 47.30600341 31.28099639 53.74822506 31.3125 60.6875 C31.31797852 61.56647949 31.32345703 62.44545898 31.32910156 63.35107422 C31.11876948 82.64722969 22.26463785 100.28571341 9 114 C-6.53915114 127.69125209 -22.98571444 133.20614485 -43.3125 133.125 C-44.30056641 133.12886719 -45.28863281 133.13273438 -46.30664062 133.13671875 C-47.25345703 133.13542969 -48.20027344 133.13414062 -49.17578125 133.1328125 C-50.03083252 133.13168457 -50.88588379 133.13055664 -51.7668457 133.12939453 C-54 133 -54 133 -57 132 C-57.88452148 130.12768555 -57.88452148 130.12768555 -58.62109375 127.63671875 C-58.90984375 126.70230957 -59.19859375 125.76790039 -59.49609375 124.80517578 C-59.80675781 123.77634277 -60.11742187 122.74750977 -60.4375 121.6875 C-67.98730241 98.01276715 -78.88663113 75.64044779 -89.53125 53.234375 C-89.84116882 52.58085556 -90.15108765 51.92733612 -90.47039795 51.25401306 C-92.04524549 47.94802701 -93.67776636 44.68543651 -95.390625 41.44921875 C-97.0527537 37.88693806 -97.7689295 34.95115318 -98.25 31.0625 C-98.39953125 29.93972656 -98.5490625 28.81695312 -98.703125 27.66015625 C-98.80109375 26.45230469 -98.8990625 25.24445313 -99 24 C-99.08008301 23.269021 -99.16016602 22.53804199 -99.24267578 21.78491211 C-99.52549499 17.57941708 -99.39494406 14.87448594 -96.6484375 11.55859375 C-95.58488059 10.49004127 -94.49180252 9.45027334 -93.375 8.4375 C-92.79322998 7.88521729 -92.21145996 7.33293457 -91.61206055 6.76391602 C-66.51938913 -16.17594302 -28.13937365 -18.95303717 0 0 Z " fill="#FEFEFE" transform="translate(309,381)"/>
<path d="M0 0 C0.17316456 13.458255 0.33949033 26.91658806 0.5 40.375 C0.51187725 41.37054901 0.5237545 42.36609802 0.53599167 43.39181519 C0.9418061 77.59678091 1.13820729 111.79263312 1 146 C0.38264984 146.02178314 -0.23470032 146.04356628 -0.87075806 146.06600952 C-3.71880915 146.17025561 -6.56639158 146.28429372 -9.4140625 146.3984375 C-10.38480713 146.43251709 -11.35555176 146.46659668 -12.35571289 146.50170898 C-32.26007033 147.32654422 -49.64369751 153.71888462 -66 165 C-67.99890882 166.33496866 -69.99866232 167.66867537 -72 169 C-72.83714909 165.70929159 -73.66906896 162.41728353 -74.5 159.125 C-74.73847656 158.18785156 -74.97695312 157.25070312 -75.22265625 156.28515625 C-75.44824219 155.38925781 -75.67382812 154.49335938 -75.90625 153.5703125 C-76.11572266 152.74289551 -76.32519531 151.91547852 -76.54101562 151.06298828 C-77 149 -77 149 -77 147 C-75.97261719 146.63648438 -74.94523438 146.27296875 -73.88671875 145.8984375 C-56.98746955 139.8160985 -41.74992432 132.4646845 -33.6875 115.5 C-30.21281169 106.18216236 -30.81861051 95.64089862 -34.68359375 86.55078125 C-43.9001116 68.69206862 -60.40783386 59.36816552 -78 51 C-67.58879118 27.70623481 -33.93727303 11.71602832 -11.75 2.67578125 C-7.53345366 1.07775504 -4.55791373 0 0 0 Z " fill="#F9AE3F" transform="translate(277,206)"/>
<path d="M0 0 C3.99728681 2.55057003 8.26194983 2.83478504 12.8671875 2.19140625 C15.38848942 1.07308685 17.52421654 -0.32170833 19.8671875 -1.80859375 C21.8671875 -2.59375 21.8671875 -2.59375 23.8671875 -2.80859375 C33.35447272 2.43200189 39.00139252 18.0928219 41.98828125 27.9375 C43.08401679 31.99415645 44.16604604 36.05086846 45.1796875 40.12890625 C45.36370117 40.85126465 45.54771484 41.57362305 45.73730469 42.31787109 C46.66500256 46.2463501 47.31145456 49.36409853 45.8671875 53.19140625 C44.08203125 55.41015625 44.08203125 55.41015625 41.8046875 57.69140625 C31.95997107 68.24043466 25.36037239 81.21866669 21.8671875 95.19140625 C14.19553006 96.84332905 6.89496927 97.51679357 -0.9453125 97.44140625 C-1.99267578 97.43246338 -3.04003906 97.42352051 -4.11914062 97.41430664 C-27.02202229 97.07260471 -27.02202229 97.07260471 -33.7109375 90.18359375 C-35.99559249 86.98256616 -36.78559888 84.07248299 -37.1328125 80.19140625 C-37.2359375 79.05703125 -37.3390625 77.92265625 -37.4453125 76.75390625 C-36.1187847 61.63148932 -25.20463858 49.51517653 -14.36328125 39.76953125 C-13.69748047 39.16729736 -13.03167969 38.56506348 -12.34570312 37.94458008 C-11.03060864 36.76565558 -9.70301978 35.6004686 -8.36132812 34.4519043 C-2.84712153 29.53353677 0.87829764 23.65968268 1.4296875 16.12890625 C0.62230222 10.47720932 -1.72633438 6.35315778 -5.9765625 2.53515625 C-8.46734649 0.98292854 -10.49912803 0.49716807 -13.3828125 0.00390625 C-14.27484375 -0.15464844 -15.166875 -0.31320312 -16.0859375 -0.4765625 C-16.76140625 -0.58613281 -17.436875 -0.69570313 -18.1328125 -0.80859375 C-11.35690148 -5.32586776 -6.47622347 -4.42247945 0 0 Z " fill="#FDFDFD" transform="translate(156.1328125,324.80859375)"/>
<path d="M0 0 C3.51769704 1.17256568 3.85424872 1.95872414 5.875 4.9375 C10.55043288 11.2185351 16.7063734 15.46669603 23 20 C22.64808594 20.46148437 22.29617187 20.92296875 21.93359375 21.3984375 C20.27545197 23.58908956 18.63526406 25.79221461 17 28 C16.40058594 28.80566406 15.80117187 29.61132812 15.18359375 30.44140625 C7.72912974 40.72953261 4.11723798 48.92204532 6 62 C7.441985 65.36287743 9.33702723 67.52560685 12 70 C12.58007812 70.58910156 13.16015625 71.17820312 13.7578125 71.78515625 C20.87141958 78.55647679 31.98167851 86.52307381 42.1015625 87.125 C47.86054016 86.79940409 52.45440125 84.60679184 57.51953125 81.9609375 C60.24216599 80.90618452 61.32350525 80.96434003 64 82 C63.34 82.99 62.68 83.98 62 85 C61.61500109 86.65549531 61.27206865 88.3222433 61 90 C61.88042969 89.79503906 62.76085937 89.59007812 63.66796875 89.37890625 C64.82941406 89.10949219 65.99085938 88.84007812 67.1875 88.5625 C68.33605469 88.29566406 69.48460937 88.02882813 70.66796875 87.75390625 C73.43923875 87.12687799 76.21091874 86.54100823 79 86 C74.9590812 90.69267989 70.73091655 92.7650674 65 95 C68.41139003 96.09651823 71.20655581 95.94215473 74.75 95.5625 C76.22726563 95.40974609 76.22726563 95.40974609 77.734375 95.25390625 C78.85585937 95.12822266 78.85585937 95.12822266 80 95 C80 95.66 80 96.32 80 97 C75.71 97.99 71.42 98.98 67 100 C67 100.99 67 101.98 67 103 C71.62 102.67 76.24 102.34 81 102 C80.505 103.485 80.505 103.485 80 105 C74.06 105.495 74.06 105.495 68 106 C68 106.99 68 107.98 68 109 C71.63 109 75.26 109 79 109 C79 109.66 79 110.32 79 111 C66.10158705 113.88485761 56.16557724 111.1698282 44.14697266 106.75195312 C41.03804147 105.6630848 37.87238658 104.83607701 34.6875 104 C17.00846722 99.04497697 -3.35850327 88.53771731 -14 73 C-20.93186073 59.1996797 -20.19443731 44.6041137 -16 30 C-12.75144725 20.26708118 -7.36462147 7.36462147 0 0 Z " fill="#F9F9F9" transform="translate(112,348)"/>
<path d="M0 0 C16.43138007 2.75923514 33.30122067 15.95351577 43 29 C48.35684863 38.74204929 50.69425617 47.85246236 48.38671875 58.94921875 C43.94978849 72.65092851 33.37723838 81.17084335 21.0625 87.8125 C15.60914186 90.41184623 9.88917999 91.75537949 4 93 C2.06461175 88.88632051 1.65775289 85.33471354 1.4375 80.8125 C1.11019026 74.85078689 0.65621966 68.93390115 0 63 C0.845625 62.82984375 1.69125 62.6596875 2.5625 62.484375 C14.18372745 60.08843388 14.18372745 60.08843388 23.5625 53.3125 C25.52374455 48.79311039 25.43652424 45.68229251 24 41 C19.37368124 31.18813714 10.43402278 23.79508594 0.91015625 18.97265625 C-1 18 -1 18 -4 16 C-5.05838169 11.31832965 -4.36903107 7.06855062 -2 2.9375 C-1.34 1.968125 -0.68 0.99875 0 0 Z " fill="#FBFBFB" transform="translate(195,258)"/>
<path d="M0 0 C0.20246338 0.54495117 0.40492676 1.08990234 0.61352539 1.65136719 C3.45205455 9.02928721 6.8969709 16.06903434 10.39859009 23.14596558 C16.3129559 35.12393317 21.99310366 47.18333225 27.3125 59.4375 C27.58262909 60.05475952 27.85275818 60.67201904 28.131073 61.3079834 C30.92924743 67.71799879 33.51025118 74.06917821 35.38500977 80.81323242 C36.25686489 83.91335402 37.3065421 86.94702054 38.3515625 89.9921875 C38.99326556 91.97914756 39.51732792 93.96913445 40 96 C28.28481094 94.04746849 19.00621702 88.55943517 10 81 C8.515 79.9171875 8.515 79.9171875 7 78.8125 C-5.11070875 68.51839756 -13.21560905 51.64895073 -15 36 C-15.63396628 24.34458505 -15.49640451 13.21763112 -12 2 C-10.56342755 1.66269158 -9.12569907 1.33030409 -7.6875 1 C-6.88699219 0.814375 -6.08648437 0.62875 -5.26171875 0.4375 C-3 0 -3 0 0 0 Z " fill="#FCFCFC" transform="translate(210,416)"/>
<path d="M0 0 C17.49 0 34.98 0 53 0 C53.66 6.93 54.32 13.86 55 21 C55.99 22.32 56.98 23.64 58 25 C58 25.66 58 26.32 58 27 C58.84498047 27.39445313 58.84498047 27.39445313 59.70703125 27.796875 C63.87789515 29.9853351 67.63145486 32.70646295 71 36 C72.0625 39.4375 72.0625 39.4375 72 42 C63.76212158 47.49191895 48.68714731 43.32852266 39.125 42.125 C37.67326072 41.94852934 36.22143775 41.77274581 34.76953125 41.59765625 C31.91145363 41.25174658 29.05547204 40.89268535 26.20019531 40.52441406 C23.37961586 40.16296118 20.55877053 39.84664451 17.72949219 39.56152344 C17.04764862 39.48666718 16.36580505 39.41181091 15.66329956 39.33468628 C13.79993517 39.1303724 11.93491057 38.94136458 10.06982422 38.75341797 C6.53892189 37.88683895 5.23291772 36.81912125 3 34 C-0.88150865 23.78952897 0 10.63322989 0 0 Z " fill="#FBFBFB" transform="translate(204,665)"/>
<path d="M0 0 C17.49 0 34.98 0 53 0 C53.66 5.94 54.32 11.88 55 18 C57.82084807 23.64169614 58.59375093 24.87830795 63.4375 28.125 C66.95975729 30.51150902 70.20845541 32.76207477 73 36 C72.75 38.25 72.75 38.25 72 40 C69.08248791 40.8359467 66.48818363 41.12844889 63.45703125 41.1328125 C62.56024658 41.13482666 61.66346191 41.13684082 60.73950195 41.13891602 C59.77359131 41.13432373 58.80768066 41.12973145 57.8125 41.125 C56.80598389 41.12234131 55.79946777 41.11968262 54.76245117 41.11694336 C47.10687651 41.07034575 39.46208463 40.86262004 31.8125 40.5625 C30.3107019 40.50376709 30.3107019 40.50376709 28.77856445 40.44384766 C25.85090366 40.31722251 22.92603474 40.1594609 20 40 C18.92282715 39.96116699 17.8456543 39.92233398 16.73583984 39.88232422 C15.1398999 39.79942139 15.1398999 39.79942139 13.51171875 39.71484375 C12.07058716 39.6528479 12.07058716 39.6528479 10.6003418 39.58959961 C7.31416269 38.84449375 6.09587477 37.59126335 4 35 C-0.09193121 24.01972126 0.53979478 11.33569038 0 0 Z " fill="#FCFCFC" transform="translate(112,670)"/>
<path d="M0 0 C1.04987642 -0.00260775 2.09975284 -0.00521549 3.18144369 -0.00790226 C4.9328144 -0.00455618 4.9328144 -0.00455618 6.71956635 -0.0011425 C7.94886446 -0.00270249 9.17816258 -0.00426248 10.44471216 -0.00586975 C13.87241509 -0.00918315 17.30006371 -0.00797048 20.72776341 -0.00488353 C24.41832627 -0.00263137 28.10888421 -0.00610812 31.79944611 -0.00886345 C39.03539905 -0.01332213 46.27134165 -0.01234425 53.50729501 -0.00945081 C59.38541078 -0.00719716 65.26352364 -0.00688409 71.14163971 -0.00797462 C72.39407899 -0.00820447 72.39407899 -0.00820447 73.67182007 -0.00843897 C75.36774981 -0.00875868 77.06367955 -0.00908289 78.75960928 -0.00941156 C94.68167296 -0.01226664 110.60373088 -0.00897889 126.52579361 -0.00361119 C140.20297692 0.00085687 153.88015174 0.00008095 167.5573349 -0.00452995 C183.42041778 -0.00987523 199.28349561 -0.01199194 215.14657927 -0.00891769 C216.83645089 -0.00859912 218.52632252 -0.00828475 220.21619415 -0.00797462 C221.04775564 -0.00782035 221.87931713 -0.00766607 222.73607746 -0.00750712 C228.61064598 -0.00664183 234.48521132 -0.00810512 240.35977936 -0.01045418 C247.51386896 -0.01325186 254.66794758 -0.0125146 261.82203591 -0.00717343 C265.47575366 -0.00453598 269.12945307 -0.00353209 272.7831707 -0.00682259 C276.73488013 -0.01032776 280.68655918 -0.00615726 284.63826752 -0.0011425 C285.80584799 -0.00337322 286.97342847 -0.00560395 288.17639017 -0.00790226 C289.22626659 -0.00529452 290.27614301 -0.00268677 291.35783386 0 C292.72800101 0.00024353 292.72800101 0.00024353 294.12584829 0.00049198 C296.17891693 0.12584114 296.17891693 0.12584114 297.17891693 1.12584114 C297.30391693 3.62584114 297.30391693 3.62584114 297.17891693 6.12584114 C295.53134871 7.77340936 293.62804499 7.25127878 291.35783386 7.25168228 C290.30795744 7.25429003 289.25808103 7.25689778 288.17639017 7.25958455 C287.0088097 7.25735382 285.84122922 7.2551231 284.63826752 7.25282478 C283.4089694 7.25438477 282.17967128 7.25594476 280.9131217 7.25755203 C277.48541877 7.26086543 274.05777015 7.25965276 270.63007045 7.25656581 C266.93950759 7.25431365 263.24894965 7.2577904 259.55838776 7.26054573 C252.32243481 7.26500441 245.08649221 7.26402653 237.85053885 7.26113309 C231.97242308 7.25887944 226.09431023 7.25856637 220.21619415 7.25965691 C219.38123463 7.25981014 218.54627511 7.25996337 217.68601379 7.26012125 C215.99008405 7.26044096 214.29415432 7.26076517 212.59822458 7.26109384 C196.67616091 7.26394892 180.75410298 7.26066118 164.83204025 7.25529347 C151.15485694 7.25082541 137.47768212 7.25160133 123.80049896 7.25621223 C107.93741608 7.26155751 92.07433825 7.26367422 76.2112546 7.26059997 C74.52138297 7.2602814 72.83151134 7.25996703 71.14163971 7.25965691 C70.31007822 7.25950263 69.47851673 7.25934836 68.6217564 7.2591894 C62.74718788 7.25832411 56.87262254 7.2597874 50.9980545 7.26213646 C43.84396491 7.26493414 36.68988629 7.26419688 29.53579795 7.25885572 C25.88208021 7.25621826 22.2283808 7.25521437 18.57466316 7.25850487 C14.62295373 7.26201004 10.67127468 7.25783954 6.71956635 7.25282478 C4.96819563 7.25617087 4.96819563 7.25617087 3.18144369 7.25958455 C1.60662906 7.25567293 1.60662906 7.25567293 0 7.25168228 C-1.37016714 7.25143875 -1.37016714 7.25143875 -2.76801443 7.2511903 C-4.82108307 7.12584114 -4.82108307 7.12584114 -5.82108307 6.12584114 C-5.94608307 3.62584114 -5.94608307 3.62584114 -5.82108307 1.12584114 C-4.17351485 -0.52172708 -2.27021112 0.0004035 0 0 Z " fill="#393939" transform="translate(343.82108306884766,192.87415885925293)"/>
<path d="M0 0 C0.68648337 -0.00397441 1.37296675 -0.00794881 2.08025265 -0.01204365 C4.38582362 -0.02168581 6.6907839 -0.00983748 8.99633789 0.00190735 C10.64706654 -0.00051999 12.29779373 -0.00423875 13.94851685 -0.00915527 C18.43607904 -0.01857583 22.92342356 -0.0091291 27.41096878 0.00417686 C32.10210461 0.0154764 36.79322948 0.01138501 41.484375 0.00942993 C49.36307337 0.00854648 57.24168579 0.01963799 65.12036133 0.03804016 C74.23569315 0.05920856 83.350899 0.06271796 92.46625042 0.0564782 C101.22655085 0.05078797 109.98680681 0.05642618 118.74710083 0.06765175 C122.4791038 0.07230226 126.21107963 0.07316963 129.94308472 0.0710659 C134.3359787 0.06918537 138.72874407 0.07726875 143.12160873 0.0931263 C144.73612816 0.097377 146.35066062 0.09821444 147.96518326 0.0954361 C150.16459381 0.09222486 152.36361752 0.10126902 154.56298828 0.11352539 C155.79521622 0.11557826 157.02744415 0.11763113 158.29701233 0.11974621 C161.28149414 0.3742218 161.28149414 0.3742218 164.28149414 2.3742218 C164.64477539 4.2492218 164.64477539 4.2492218 164.59399414 6.3742218 C164.59012695 7.0754718 164.58625977 7.7767218 164.58227539 8.4992218 C164.28149414 10.3742218 164.28149414 10.3742218 162.28149414 12.3742218 C159.3860321 12.6286974 159.3860321 12.6286974 155.60058594 12.63491821 C154.55883351 12.64065653 154.55883351 12.64065653 153.49603558 12.64651078 C151.15751877 12.65686986 148.81924615 12.65284323 146.48071289 12.64888 C144.80880505 12.65322485 143.1368992 12.65840723 141.46499634 12.66436768 C136.91551648 12.6777926 132.36611951 12.67833254 127.81662369 12.67580438 C124.02409409 12.67473716 120.23158143 12.67961156 116.43905544 12.6844098 C107.49557168 12.69551679 98.55212991 12.69593551 89.60864258 12.68989563 C80.36888767 12.68385184 71.12928488 12.69617441 61.88955593 12.7174657 C53.96767165 12.73505195 46.04583593 12.74108783 38.12393284 12.73782796 C33.38762339 12.73601039 28.65142247 12.73869823 23.91513062 12.7525425 C19.46312912 12.76506819 15.01136574 12.763227 10.55936813 12.75013161 C8.9218475 12.74775484 7.28431038 12.75053956 5.64680862 12.75875473 C3.41839226 12.76913167 1.19078842 12.76119593 -1.03759766 12.7484436 C-2.91139351 12.74869522 -2.91139351 12.74869522 -4.82304382 12.74895191 C-6.25629753 12.56346051 -6.25629753 12.56346051 -7.71850586 12.3742218 C-10.03133173 8.904983 -10.14329172 7.45216605 -9.71850586 3.3742218 C-7.21857155 -0.4090406 -4.26625231 -0.00058076 0 0 Z " fill="#050505" transform="translate(411.718505859375,156.6257781982422)"/>
<path d="M0 0 C1.24885918 0.00669217 1.24885918 0.00669217 2.52294785 0.01351953 C3.40458731 0.01039954 4.28622677 0.00727956 5.19458258 0.00406504 C8.16645495 -0.00395024 11.13812513 0.00242239 14.10999924 0.00869775 C16.23347967 0.00598943 18.35695916 0.0024294 20.48043686 -0.00192237 C26.26135051 -0.01106816 32.04219307 -0.00749296 37.82310802 -0.0011642 C43.86222696 0.00388515 49.90133966 -0.00079273 55.94045883 -0.00393653 C66.08487409 -0.00757957 76.22926027 -0.00276851 86.37367111 0.00674462 C98.11387038 0.01762688 109.85400017 0.0141066 121.59419775 0.00309181 C131.65960048 -0.00597494 141.72498226 -0.00726925 151.79038775 -0.00203085 C157.80828739 0.0010926 163.82615434 0.00148799 169.8440519 -0.00510383 C175.50172872 -0.01086766 181.15931572 -0.00689805 186.81698281 0.00468469 C188.89753434 0.00733656 190.97809339 0.00655725 193.05864197 0.00215936 C195.89084125 -0.00327683 198.7227497 0.00351459 201.55493027 0.01351953 C202.38527234 0.00905808 203.21561441 0.00459664 204.07111835 0 C207.94037719 0.0266526 209.80689497 0.07046287 213.10243088 2.26748681 C212.22743088 7.14248681 212.22743088 7.14248681 211.10243088 8.26748681 C208.29786762 8.36761315 205.51785703 8.40187882 202.71278244 8.39447045 C201.37723753 8.39681044 201.37723753 8.39681044 200.01471192 8.3991977 C197.00747679 8.40321169 194.00029145 8.40001652 190.99305588 8.39688134 C188.84677465 8.39823521 186.70049366 8.40001505 184.55421311 8.4021914 C178.70727845 8.40676751 172.86036135 8.40497545 167.01342636 8.40181231 C160.90930497 8.39928962 154.80518514 8.401626 148.70106369 8.40319848 C138.44813124 8.40502044 128.19520599 8.40261317 117.94227463 8.3978579 C106.06972162 8.39241524 94.19718578 8.39417787 82.32463318 8.39968431 C72.15143171 8.40421468 61.97823542 8.40486636 51.80503327 8.40224564 C45.7201216 8.40068245 39.63521801 8.40049025 33.55030686 8.40378213 C27.8311163 8.40665974 22.111948 8.40468718 16.39275986 8.39888787 C14.28717959 8.39755968 12.18159746 8.39795538 10.07601792 8.40015054 C7.21467932 8.40285974 4.35341322 8.39948375 1.49207932 8.39447045 C0.64744755 8.39670117 -0.19718422 8.3989319 -1.06741089 8.40123022 C-6.78341929 8.38163664 -6.78341929 8.38163664 -7.89756912 7.26748681 C-8.08506912 4.82998681 -8.08506912 4.82998681 -7.89756912 2.26748681 C-5.3046849 -0.3253974 -3.53269386 0.02441834 0 0 Z " fill="#202020" transform="translate(386.89756911993027,219.7325131893158)"/>
<path d="M0 0 C2.05078125 0.03255208 4.1015625 0.06510417 6.15234375 0.09765625 C8.71802266 8.64991928 11.81275708 19.46017265 7.71484375 27.97265625 C4.97610019 32.075828 0.60903584 34.23066362 -3.84765625 36.09765625 C-4.50765625 36.09765625 -5.16765625 36.09765625 -5.84765625 36.09765625 C-7.58790216 41.31839397 -7.11281527 46.60312358 -6.16015625 51.97265625 C-5.84765625 55.09765625 -5.84765625 55.09765625 -7.03515625 56.91015625 C-7.93234375 57.49796875 -7.93234375 57.49796875 -8.84765625 58.09765625 C-9.40453125 58.48953125 -9.96140625 58.88140625 -10.53515625 59.28515625 C-14.87650337 60.81049443 -18.89537607 60.86130326 -23.14453125 59.19921875 C-25.0897649 58.22660193 -26.97961839 57.21052987 -28.84765625 56.09765625 C-28.84765625 51.80240101 -26.61383418 50.25900246 -23.84765625 47.09765625 C-21.96745456 44.27735371 -21.36503751 42.70575706 -20.62890625 39.4921875 C-20.41878906 38.59048828 -20.20867187 37.68878906 -19.9921875 36.75976562 C-19.77949219 35.81939453 -19.56679687 34.87902344 -19.34765625 33.91015625 C-18.92095526 32.06241166 -18.4938773 30.21475409 -18.06640625 28.3671875 C-17.86273438 27.4798291 -17.6590625 26.5924707 -17.44921875 25.67822266 C-16.624448 22.14014357 -15.7414121 18.61888878 -14.84765625 15.09765625 C-15.63140625 15.30390625 -16.41515625 15.51015625 -17.22265625 15.72265625 C-18.08890625 15.84640625 -18.95515625 15.97015625 -19.84765625 16.09765625 C-20.50765625 15.43765625 -21.16765625 14.77765625 -21.84765625 14.09765625 C-21.47265625 11.47265625 -21.47265625 11.47265625 -20.84765625 9.09765625 C-17.87765625 9.59265625 -17.87765625 9.59265625 -14.84765625 10.09765625 C-15.17765625 8.11765625 -15.50765625 6.13765625 -15.84765625 4.09765625 C-8.38788614 2.20110453 -8.38788614 2.20110453 -4.91015625 1.53515625 C-2.67216696 1.06043125 -2.23379182 0.11806511 0 0 Z " fill="#F6F6F6" transform="translate(181.84765625,265.90234375)"/>
<path d="M0 0 C5.07202542 2.23399229 8.60222156 5.23033745 10.87890625 10.34765625 C11.84087098 16.31183757 10.61662214 19.98931109 7.50390625 25.109375 C4.70529906 28.96418731 1.40600712 32.16466278 -2.12109375 35.34765625 C-3.48234375 36.61609375 -3.48234375 36.61609375 -4.87109375 37.91015625 C-7.12109375 39.34765625 -7.12109375 39.34765625 -8.93359375 39.15234375 C-17.44990868 36.01955647 -25.77431667 28.23625169 -30.12109375 20.34765625 C-29.82550213 14.57814579 -23.93666296 10.07885886 -20.01953125 6.34375 C-13.83041839 0.79209258 -8.55232887 -2.63027426 0 0 Z " fill="#FBFBFB" transform="translate(145.12109375,326.65234375)"/>
<path d="M0 0 C8.37138812 1.37235871 16.70049634 9.65871357 22 16 C24.86370688 20.2493715 25.36271553 23.76556069 25.49609375 28.75390625 C24.57856351 32.90807861 22.04244153 35.32772481 18.546875 37.58203125 C9.80701973 41.42707931 2.33795003 41.5773999 -7 41 C-7.89976562 40.96648437 -8.79953125 40.93296875 -9.7265625 40.8984375 C-12.5837608 40.70103107 -14.46712448 40.55507867 -16.5 38.4375 C-17.22800669 34.8884674 -17.59329119 31.59682781 -17 28 C-14.44126687 24.35872593 -11.03256885 22.75329081 -7 21 C-6.34 21 -5.68 21 -5 21 C-4.566875 19.88625 -4.566875 19.88625 -4.125 18.75 C-3 16 -3 16 -1.96875 14.21875 C-0.72416319 11.36824473 -0.57694339 8.84646527 -0.375 5.75 C-0.30023438 4.67234375 -0.22546875 3.5946875 -0.1484375 2.484375 C-0.09945312 1.66453125 -0.05046875 0.8446875 0 0 Z " fill="#F7AD3F" transform="translate(193,278)"/>
<path d="M0 0 C0.33 0 0.66 0 1 0 C1.1325463 15.57258815 1.26299121 31.14519252 1.39115143 46.71781731 C1.45074789 53.9538135 1.51096248 61.18980344 1.57275391 68.42578125 C2.04501633 123.82266515 2.04501633 123.82266515 2.08811951 146.60052872 C2.09179215 148.33381705 2.09705749 150.06710296 2.10414124 151.80038071 C2.22936869 184.77465693 2.22936869 184.77465693 -8 197 C-14.15573512 202.12977927 -22.19566558 201.062317 -29.69921875 200.55078125 C-38.8178534 199.97806888 -47.92881893 199.64918952 -57.0625 199.4375 C-58.3842775 199.40573166 -58.3842775 199.40573166 -59.73275757 199.37332153 C-97.14024979 198.51637659 -134.58544173 198.91712756 -172 199 C-169.54895936 196.54895936 -168.81895756 196.71296054 -165.43969727 196.59033203 C-163.94405495 196.53315506 -163.94405495 196.53315506 -162.41819763 196.474823 C-161.29148148 196.44445953 -160.16476532 196.41409607 -159.00390625 196.3828125 C-157.79207169 196.34527863 -156.58023712 196.30774475 -155.3316803 196.26907349 C-136.43636379 195.73593364 -117.52263276 195.85013851 -98.62182617 195.86962891 C-93.00971596 195.87538523 -87.39765297 195.87199458 -81.7855444 195.86605644 C-77.41276191 195.86243396 -73.03999055 195.86359615 -68.66720772 195.86618423 C-66.59693966 195.86684574 -64.52667056 195.86605262 -62.45640373 195.86370468 C-43.06816811 195.84649421 -43.06816811 195.84649421 -35.11825562 196.76264954 C-31.31534397 197.18876565 -27.5108782 197.26249941 -23.6875 197.3125 C-22.92888672 197.34150391 -22.17027344 197.37050781 -21.38867188 197.40039062 C-16.10457578 197.45996846 -13.20507843 196.4704563 -9 193 C-1.18322283 183.84320388 -1.57505101 171.68481295 -1.67529297 160.30175781 C-1.67778155 158.74813997 -1.67892322 157.19451949 -1.67883301 155.64089966 C-1.68152275 152.31520685 -1.69365805 148.98973571 -1.71337509 145.66410065 C-1.74462431 140.39152422 -1.75470672 135.11903044 -1.76223755 129.84637451 C-1.77668945 121.49575603 -1.80557943 113.14525891 -1.84048474 104.79470325 C-1.90244256 89.86626498 -1.94019892 74.93775614 -1.97207749 60.00922656 C-1.98381308 54.78236577 -2.0019227 49.55557869 -2.02559257 44.32875872 C-2.03956276 41.05905269 -2.04933286 37.78934235 -2.05822754 34.51961899 C-2.06323425 33.01977438 -2.0700104 31.5199343 -2.07883072 30.02010727 C-2.13477694 20.33925377 -2.07710602 10.63229334 -1 1 C-0.67 0.67 -0.34 0.34 0 0 Z " fill="#1A1A1A" transform="translate(702,279)"/>
<path d="M0 0 C98.67 0 197.34 0 299 0 C299 0.99 299 1.98 299 3 C200.33 3 101.66 3 0 3 C0 2.01 0 1.02 0 0 Z " fill="#FEFEFE" transform="translate(340,195)"/>
<path d="M0 0 C17.31683134 4.68022469 32.66171028 17.69475086 41.51953125 32.9375 C45.73354236 41.65461004 46.76885886 51.73002709 44.125 61.1015625 C37.66065231 76.19921665 25.81301283 85.60890172 11 92 C3.30188679 95 3.30188679 95 -1 95 C-0.79503906 95.54527344 -0.59007812 96.09054687 -0.37890625 96.65234375 C1.50170072 101.91624365 3.2511515 107.3431115 3 113 C2.34 113.66 1.68 114.32 1 115 C0.76925781 113.93523437 0.53851563 112.87046875 0.30078125 111.7734375 C-5.30146217 85.62242511 -5.30146217 85.62242511 -21 65 C-24.08802167 65.37300856 -25.53471859 66.33934064 -28.25 68.0625 C-32.26963845 70.47777082 -35.38565431 70.32381373 -40 70 C-40 69.67 -40 69.34 -40 69 C-38.80375 68.7525 -37.6075 68.505 -36.375 68.25 C-32.20550902 67.22617481 -29.4176247 65.56321852 -26 63 C-26.2475 61.5459375 -26.2475 61.5459375 -26.5 60.0625 C-28.05724063 48.43038438 -28.05724063 48.43038438 -24.875 44.125 C-17.94117647 39 -17.94117647 39 -14 39 C-14 38.34 -14 37.68 -14 37 C-12.515 37.495 -12.515 37.495 -11 38 C-13.69309742 41.01953348 -16.00582733 43.18983093 -19.75 44.6875 C-23.08431396 45.6170568 -23.08431396 45.6170568 -24 48 C-24.13902938 52.30991069 -24.09373532 55.83902682 -23 60 C-4.16160372 61.44939334 -4.16160372 61.44939334 13 55 C15.49563171 52.29962689 16.44709067 50.4271981 16.5 46.75 C16.17036573 38.9909163 11.69084975 34.43978052 6.25 29.3125 C1.78580374 25.43816751 -2.72239856 22.63880072 -8 20 C-8 23.96 -8 27.92 -8 32 C-8.33 32 -8.66 32 -9 32 C-9 27.71 -9 23.42 -9 19 C-4 18 -4 18 -0.94921875 19.7734375 C0.15253299 20.62211127 1.23925762 21.49054827 2.3125 22.375 C3.16690674 23.05912964 3.16690674 23.05912964 4.03857422 23.75708008 C11.79094286 30.10462023 18.96439195 36.75074364 20.4375 47.0625 C19.6878242 52.09603753 17.21684853 54.98595956 13.375 58.1875 C7.29294543 61.45378856 0.97188596 63.55041205 -6 63 C-5.80083984 63.82177734 -5.80083984 63.82177734 -5.59765625 64.66015625 C-4.1210145 71.28887649 -3.59021517 77.8049462 -3.24609375 84.58203125 C-3.03703339 87.48564734 -2.65246705 90.16904794 -2 93 C14.9360769 87.43809935 30.63139422 81.08642302 39.37109375 64.37890625 C43.20568184 55.23692981 43.49402566 46.01816454 39.9375 36.75 C31.61775156 19.03849071 15.93616463 10.12935902 -1 2 C-0.67 1.34 -0.34 0.68 0 0 Z " fill="#1C1711" transform="translate(201,258)"/>
<path d="M0 0 C70.95 0 141.9 0 215 0 C215 1.32 215 2.64 215 4 C143.72 4 72.44 4 -1 4 C-0.67 2.68 -0.34 1.36 0 0 Z " fill="#E6E6E6" transform="translate(382,222)"/>
<path d="M0 0 C0.33 0 0.66 0 1 0 C1.47634958 3.17566389 1.42736836 5.29959074 -0.265625 8.07421875 C-1.80018812 10.08926401 -3.39062994 12.04457368 -5 14 C-5.66 14.99 -6.32 15.98 -7 17 C-2.35796103 19.53309233 1.65155992 21.46515599 7 22 C7 22.33 7 22.66 7 23 C1.84373834 23.53711059 -1.71548998 23.56450126 -6 20.4375 C-9.21636547 18.12897962 -11.0588498 17.71948841 -15 18.1875 C-16.33886841 18.42949142 -17.67516468 18.69025841 -19 19 C-17.80375 19.391875 -16.6075 19.78375 -15.375 20.1875 C-9.93540179 22.24780799 -6.40794939 24.88807592 -3.125 29.8125 C-0.98506471 35.87564998 -1.35791794 40.18030128 -3.9375 45.9375 C-7.86868741 53.17799206 -13.95115909 58.26378605 -20.125 63.5625 C-26.45999731 69.07119332 -31.17602071 74.94199915 -35.375 82.1875 C-35.72111328 82.78183838 -36.06722656 83.37617676 -36.42382812 83.98852539 C-38.27575559 87.29852099 -39.50327832 90.23201126 -40 94 C-41.485 93.505 -41.485 93.505 -43 93 C-39.91946827 81.94632731 -33.81684086 73.29202875 -26 65 C-28.77839699 62.10636996 -31.67449816 59.66283939 -34.875 57.25 C-39.44452779 53.65386274 -42.82528067 49.85241654 -46 45 C-49.46212175 46.15404058 -49.65572314 46.62890282 -51.33984375 49.68359375 C-51.76128662 50.44124023 -52.18272949 51.19888672 -52.61694336 51.97949219 C-53.05272705 52.79063477 -53.48851074 53.60177734 -53.9375 54.4375 C-54.38552979 55.26282227 -54.83355957 56.08814453 -55.29516602 56.93847656 C-60.75251976 67.11378125 -63.84530833 76.6715453 -66 88 C-68 86 -68 86 -68.1875 84.1796875 C-66.73492222 66.32508558 -56.52003112 49.21863684 -45 36 C-44.26652344 35.14535156 -43.53304687 34.29070312 -42.77734375 33.41015625 C-34.40386064 23.85892766 -26.64546436 15.64303096 -13.25 14.75 C-8.20279695 13.58526084 -5.90349618 10.11891318 -3 6 C-1.82517916 4.01982494 -0.90286879 2.12439715 0 0 Z M-45 40 C-44.33200135 46.45732033 -38.61672862 51.5837795 -34.0078125 55.62109375 C-29.04482821 60.08638011 -29.04482821 60.08638011 -23.0078125 62.0546875 C-15.12049064 57.91154177 -6.85958077 49.46935943 -4 41 C-3.09980207 37.27162117 -3.32447985 34.3224972 -5.109375 30.828125 C-8.32143633 26.09637874 -11.36970907 23.5531837 -17 22 C-28.90289055 20.27216105 -38.80354764 30.70532145 -45 40 Z " fill="#0C0C0C" transform="translate(160,304)"/>
<path d="M0 0 C13.67302562 -0.0231205 27.34604664 -0.04091359 41.01908779 -0.05181217 C47.36730576 -0.05704164 53.7155104 -0.06414044 60.0637207 -0.07543945 C66.18448582 -0.08626606 72.30523809 -0.09227635 78.42601204 -0.09487724 C80.76690943 -0.0967319 83.10780609 -0.10035329 85.44869804 -0.10573006 C88.71508202 -0.11293748 91.98141215 -0.11399107 95.24780273 -0.11352539 C96.226035 -0.11712067 97.20426727 -0.12071594 98.21214294 -0.12442017 C99.09700378 -0.1230455 99.98186462 -0.12167084 100.89353943 -0.12025452 C101.66692374 -0.12117631 102.44030806 -0.1220981 103.23712826 -0.12304783 C105 0 105 0 106 1 C106.125 3.5 106.125 3.5 106 6 C105 7 105 7 102.96501678 7.1241985 C102.06014324 7.12381878 101.15526969 7.12343906 100.22297573 7.12304783 C99.1829328 7.12503888 98.14288987 7.12702993 97.07133049 7.12908131 C95.91474074 7.12616847 94.75815099 7.12325563 93.56651306 7.12025452 C92.34876003 7.12110894 91.131007 7.12196337 89.87635237 7.12284368 C86.48092147 7.12421191 83.08554749 7.12106428 79.69012344 7.11606562 C76.03434679 7.11176455 72.37857204 7.1132073 68.72279358 7.1139679 C62.38381975 7.11449335 56.04485618 7.11134432 49.70588493 7.10573006 C40.54069156 7.09761795 31.37550317 7.09500013 22.21030659 7.09374207 C7.34194312 7.09155109 -7.52641489 7.08488977 -22.39477539 7.07543945 C-36.84171522 7.06626651 -51.28865356 7.0591851 -65.7355957 7.05493164 C-66.62545766 7.05466892 -67.51531962 7.05440619 -68.43214709 7.05413551 C-72.89612968 7.05283051 -77.36011228 7.05156679 -81.82409489 7.05032361 C-118.88273379 7.03994957 -155.94136647 7.02233002 -193 7 C-193 6.67 -193 6.34 -193 6 C-94.99 5.67 3.02 5.34 104 5 C104 4.01 104 3.02 104 2 C69.68 2 35.36 2 0 2 C0 1.34 0 0.68 0 0 Z " fill="#000000" transform="translate(535,193)"/>
<path d="M0 0 C1.32 0 2.64 0 4 0 C7.09571169 4.64356754 6.66354505 9.6165772 5.60546875 15.01171875 C2.08873452 25.83418475 -6.29563703 34.93895356 -14 43 C-17.875 42.125 -17.875 42.125 -19 41 C-19.60558527 35.62403128 -17.82041945 31.88885736 -15.3515625 27.265625 C-14.97897308 26.54638855 -14.60638367 25.8271521 -14.22250366 25.08612061 C-13.43626559 23.57380348 -12.64420269 22.06450199 -11.84667969 20.55810547 C-10.62475353 18.24953435 -9.42032568 15.93249901 -8.21875 13.61328125 C-7.45151948 12.14270772 -6.68332344 10.67263743 -5.9140625 9.203125 C-5.55253082 8.51043518 -5.19099915 7.81774536 -4.81851196 7.10406494 C-3.39543255 4.42203143 -2.15984038 2.15984038 0 0 Z " fill="#F5F5F5" transform="translate(325,447)"/>
<path d="M0 0 C0.89138672 0.09087891 0.89138672 0.09087891 1.80078125 0.18359375 C8.19701879 0.83018075 14.59688445 1.42592278 21 2 C21.67635064 5.20636973 22.33932448 8.41536689 23 11.625 C23.19078125 12.52863281 23.3815625 13.43226563 23.578125 14.36328125 C24.52210398 18.98203556 25.25214768 23.25647172 25 28 C22.4778714 26.75256064 19.95729922 25.50212931 17.4375 24.25 C16.73302734 23.90195312 16.02855469 23.55390625 15.30273438 23.1953125 C13.88688772 22.49065149 12.47658746 21.7747376 11.07202148 21.04785156 C9.7229156 20.36558899 8.3521374 19.72412892 6.96118164 19.13183594 C4.38545913 17.93555077 2.36386783 16.90123716 1.26782227 14.18652344 C0.86308052 12.02485188 0.67307243 9.94592975 0.5625 7.75 C0.49869141 7.00492188 0.43488281 6.25984375 0.36914062 5.4921875 C0.21676383 3.66366593 0.10437505 1.83188855 0 0 Z " fill="#F8AE3F" transform="translate(255,531)"/>
<path d="M0 0 C0.33 0 0.66 0 1 0 C1.13262942 19.65073751 1.26307374 39.30148849 1.39115143 58.9522562 C1.45071306 68.08349332 1.51091024 77.2147253 1.57275391 86.34594727 C1.85832955 128.56461349 2.08955644 170.78016847 2 213 C1.34 213 0.68 213 0 213 C-1.59840229 141.98545324 -0.74423116 71.02083112 0 0 Z " fill="#302F2C" transform="translate(278,135)"/>
<path d="M0 0 C8.25450602 0.78200583 15.96387462 8.25653785 21.49609375 14.08203125 C25.05503969 18.62084283 27.577666 23.55984802 28.5625 29.25 C27.56422997 34.13043126 25.14982496 37.04181253 21.375 40.1875 C15.29294543 43.45378856 8.97188596 45.55041205 2 45 C2.144375 45.67546875 2.28875 46.3509375 2.4375 47.046875 C2.623125 47.93890625 2.80875 48.8309375 3 49.75 C3.185625 50.63171875 3.37125 51.5134375 3.5625 52.421875 C4 55 4 55 4 59 C3.34 59 2.68 59 2 59 C1.67 60.32 1.34 61.64 1 63 C0.57589844 62.20335937 0.15179688 61.40671875 -0.28515625 60.5859375 C-3.88006215 54.0914042 -7.07701896 49.47245507 -13 45 C-13 44.67 -13 44.34 -13 44 C-12.39639648 43.96559814 -11.79279297 43.93119629 -11.17089844 43.89575195 C7.22262964 43.53843209 7.22262964 43.53843209 22.76953125 35.1015625 C24.90393482 31.45613672 24.69037923 28.08812796 24 24 C20.0949223 13.66534994 9.44139076 6.72069538 0 2 C0 5.96 0 9.92 0 14 C-0.33 14 -0.66 14 -1 14 C-1.02685938 11.85423363 -1.04633088 9.70837355 -1.0625 7.5625 C-1.07410156 6.36753906 -1.08570313 5.17257812 -1.09765625 3.94140625 C-1 1 -1 1 0 0 Z " fill="#232323" transform="translate(193,276)"/>
<path d="M0 0 C6.48297354 0.02608842 10.89183798 0.66338748 15.59375 5.33203125 C19.07270788 9.45846185 20.6629607 13.32782536 20.40234375 18.80078125 C18.39911681 29.75045859 9.89538834 36.67898224 1.875 43.5625 C-4.45999731 49.07119332 -9.17602071 54.94199915 -13.375 62.1875 C-13.72111328 62.78183838 -14.06722656 63.37617676 -14.42382812 63.98852539 C-16.27575559 67.29852099 -17.50327832 70.23201126 -18 74 C-18.99 73.67 -19.98 73.34 -21 73 C-17.91946827 61.94632731 -11.81684086 53.29202875 -4 45 C-6.80331466 42.08662449 -9.73189784 39.58476869 -12.9375 37.125 C-16.85892836 34.01450217 -20.13363704 31.10845357 -23 27 C-23 26.01 -23 25.02 -23 24 C-22.34 24 -21.68 24 -21 24 C-19.97135926 25.29554752 -19.00280048 26.63897827 -18.0625 28 C-13.97568189 33.40902397 -9.03162307 37.84101824 -3 41 C2.22989007 41.07307232 6.63911977 35.33222749 10.203125 31.9140625 C14.59693916 27.48291528 17.04555965 23.21291542 17.5625 16.9375 C16.8754603 12.12822208 15.5182556 9.33261899 12 6 C7.74220843 3.67756824 3.79911703 2.58525817 -1 2 C-0.67 1.34 -0.34 0.68 0 0 Z " fill="#1E1E1E" transform="translate(138,324)"/>
<path d="M0 0 C5.72651799 0.01038791 11.45304065 0.01483013 17.17956543 0.01983643 C28.33582736 0.03043381 39.49206905 0.04741006 50.64831543 0.06866455 C50.64831543 0.39866455 50.64831543 0.72866455 50.64831543 1.06866455 C37.77831543 1.06866455 24.90831543 1.06866455 11.64831543 1.06866455 C11.31831543 1.72866455 10.98831543 2.38866455 10.64831543 3.06866455 C-18.39168457 3.06866455 -47.43168457 3.06866455 -77.35168457 3.06866455 C-74.90537562 0.6223556 -74.18664189 0.7813662 -70.81555176 0.65679932 C-69.32514374 0.5991465 -69.32514374 0.5991465 -67.80462646 0.54032898 C-66.68062439 0.50971878 -65.55662231 0.47910858 -64.39855957 0.4475708 C-63.18899597 0.40983047 -61.97943237 0.37209015 -60.73321533 0.33320618 C-40.49836577 -0.23830749 -20.24039765 -0.04069933 0 0 Z " fill="#2F2E2B" transform="translate(607.3516845703125,474.93133544921875)"/>
<path d="M0 0 C0.33 1.32 0.66 2.64 1 4 C-2.73757842 6.49171895 -5.59365257 6.25739978 -9.91557312 6.20254517 C-10.73076331 6.20017046 -11.54595351 6.19779576 -12.38584644 6.1953491 C-15.12675369 6.18490384 -17.86734178 6.1600232 -20.6081543 6.13525391 C-22.5691586 6.12483143 -24.53016778 6.11529552 -26.49118042 6.10658264 C-31.82356003 6.08036631 -37.15578625 6.04170089 -42.4880712 6.00085878 C-48.05742115 5.96029868 -53.62683018 5.93110639 -59.19624329 5.90072632 C-69.74662073 5.84143944 -80.29690461 5.77187726 -90.84719354 5.69865549 C-102.85666243 5.61580454 -114.86619062 5.54435964 -126.87573755 5.47388959 C-151.58391224 5.32864965 -176.29197743 5.16903136 -201 5 C-201 4.67 -201 4.34 -201 4 C-135.33 4 -69.66 4 -2 4 C-1.67 3.01 -1.34 2.02 -1 1 C-0.67 0.67 -0.34 0.34 0 0 Z " fill="#535353" transform="translate(599,222)"/>
<path d="M0 0 C1.32 0 2.64 0 4 0 C7.09571169 4.64356754 6.66354505 9.6165772 5.60546875 15.01171875 C2.08873452 25.83418475 -6.29563703 34.93895356 -14 43 C-17.875 42.125 -17.875 42.125 -19 41 C-19.60558527 35.62403128 -17.82041945 31.88885736 -15.3515625 27.265625 C-14.97897308 26.54638855 -14.60638367 25.8271521 -14.22250366 25.08612061 C-13.43626559 23.57380348 -12.64420269 22.06450199 -11.84667969 20.55810547 C-10.62475353 18.24953435 -9.42032568 15.93249901 -8.21875 13.61328125 C-7.45151948 12.14270772 -6.68332344 10.67263743 -5.9140625 9.203125 C-5.55253082 8.51043518 -5.19099915 7.81774536 -4.81851196 7.10406494 C-3.39543255 4.42203143 -2.15984038 2.15984038 0 0 Z M1 2 C-2.71507946 7.51793808 -5.56283117 13.65078542 -8.63500977 19.54760742 C-9.33855838 20.89448442 -10.045613 22.23953565 -10.75610352 23.58276367 C-11.7867492 25.53159935 -12.80659282 27.48574708 -13.82421875 29.44140625 C-14.43354248 30.60357666 -15.04286621 31.76574707 -15.6706543 32.96313477 C-17.2673336 36.05820638 -17.2673336 36.05820638 -17 40 C-11.56370796 39.12356076 -9.19218211 35.17849307 -6 31 C0.01180933 22.3711402 5.15008403 14.85944724 4 4 C3.67 3.34 3.34 2.68 3 2 C2.34 2 1.68 2 1 2 Z " fill="#222222" transform="translate(325,447)"/>
<path d="M0 0 C0.33 0 0.66 0 1 0 C1.04374756 0.5669458 1.08749512 1.1338916 1.13256836 1.71801758 C2.39313277 16.47508438 5.86022766 28.03764602 13 41 C12.01 41 11.02 41 10 41 C8.48685681 38.08997166 6.99185583 35.170991 5.5 32.25 C4.85611328 31.0125 4.85611328 31.0125 4.19921875 29.75 C3.79316406 28.95078125 3.38710937 28.1515625 2.96875 27.328125 C2.59169922 26.5949707 2.21464844 25.86181641 1.82617188 25.10644531 C1 23 1 23 1 19 C-0.093125 19.20625 -1.18625 19.4125 -2.3125 19.625 C-6 20 -6 20 -9 18 C-7.74056892 13.42025061 -5.80370696 9.85440873 -3.21875 5.9296875 C-2.00362111 4.00573342 -0.98409098 2.05018954 0 0 Z " fill="#1E1E1E" transform="translate(209,397)"/>
<path d="M0 0 C0 3 0 3 -2.0625 5.5 C-7.23941806 9.90588771 -11.43447956 11.41065059 -18.20654297 10.95874023 C-19.02525879 10.88985596 -19.84397461 10.82097168 -20.6875 10.75 C-32.91022448 9.95296219 -45.13102317 9.69324759 -57.375 9.4375 C-59.40584608 9.39369273 -61.43668924 9.34974985 -63.4675293 9.30566406 C-68.31163373 9.20113963 -73.15579354 9.09967899 -78 9 C-78 8.34 -78 7.68 -78 7 C-76.75211449 7.0199855 -76.75211449 7.0199855 -75.47901917 7.04037476 C-67.60881715 7.16098856 -59.738929 7.25214444 -51.86801243 7.31087303 C-47.8221678 7.34208244 -43.7770918 7.38436075 -39.73168945 7.45263672 C-35.82180758 7.51820658 -31.91266124 7.55378405 -28.00227165 7.56926346 C-26.51636118 7.58028308 -25.03048742 7.60180181 -23.54489326 7.63438034 C-14.55071552 7.82363403 -7.891697 7.33126473 -1 1 C-0.67 0.67 -0.34 0.34 0 0 Z " fill="#040404" transform="translate(697,469)"/>
<path d="M0 0 C3 1 3 1 4.55883789 3.74609375 C5.12458134 4.9714817 5.67831987 6.20245377 6.22265625 7.4375 C6.52450836 8.10115067 6.82636047 8.76480133 7.13735962 9.44856262 C8.12384103 11.62742798 9.09379588 13.81317917 10.0625 16 C10.73713962 17.50491193 11.41202729 19.0097127 12.0871582 20.5144043 C28.40772792 57.06680578 28.40772792 57.06680578 32 71 C31.67 71.66 31.34 72.32 31 73 C27.92562079 70.47121485 27.21933443 68.03810447 26.1875 64.25 C20.8160682 45.99911276 12.35415796 28.52927023 4.2890625 11.34082031 C3.73992187 10.16874023 3.19078125 8.99666016 2.625 7.7890625 C2.12226563 6.7263916 1.61953125 5.6637207 1.1015625 4.56884766 C0 2 0 2 0 0 Z " fill="#1D1D1D" transform="translate(220,438)"/>
<path d="M0 0 C1.875 1.0625 1.875 1.0625 3 3 C3.49891602 6.92005446 3.55253414 9.11594538 1.4375 12.5 C-1 14 -1 14 -4.5625 14 C-8 13 -8 13 -10 11.3125 C-11.38906225 8.10029355 -11.05521374 6.3063364 -10 3 C-7.02462107 -0.30597659 -4.31685053 -0.5510873 0 0 Z " fill="#505050" transform="translate(640,85)"/>
<path d="M0 0 C2.375 1.625 2.375 1.625 4 4 C4.60975382 7.65852292 4.44543026 9.30512879 2.4375 12.4375 C0 14 0 14 -3.5625 14 C-7 13 -7 13 -9 11.3125 C-10.37694267 8.12832007 -9.980224 6.29075199 -9 3 C-6.6975944 -0.63537727 -4.0732876 -0.58189823 0 0 Z " fill="#505050" transform="translate(660,85)"/>
<path d="M0 0 C2.375 1.625 2.375 1.625 4 4 C4.60975382 7.65852292 4.44543026 9.30512879 2.4375 12.4375 C0 14 0 14 -3.5625 14 C-7 13 -7 13 -9 11.3125 C-10.37694267 8.12832007 -9.980224 6.29075199 -9 3 C-6.6975944 -0.63537727 -4.0732876 -0.58189823 0 0 Z " fill="#505050" transform="translate(681,85)"/>
<path d="M0 0 C1.41623216 -0.05447047 2.83308191 -0.09300508 4.25 -0.125 C5.03890625 -0.14820313 5.8278125 -0.17140625 6.640625 -0.1953125 C9.34167987 0.02828476 10.815695 0.38093182 13 2 C13.828125 4.390625 13.828125 4.390625 14.25 7.25 C14.47042969 8.72146484 14.47042969 8.72146484 14.6953125 10.22265625 C15.01878577 13.17123956 15.16020662 16.03617745 15 19 C12.77639456 16.08236013 10.68969332 13.09414245 8.625 10.0625 C6.00829285 6.3013307 3.38515796 3.07741632 0 0 Z " fill="#ECECEC" transform="translate(180,320)"/>
<path d="M0 0 C2.625 0.375 2.625 0.375 5 1 C4.67 2.98 4.34 4.96 4 7 C3.01 7 2.02 7 1 7 C1.7734375 8.1446875 1.7734375 8.1446875 2.5625 9.3125 C3.036875 10.199375 3.51125 11.08625 4 12 C3.67 12.99 3.34 13.98 3 15 C1.68 15 0.36 15 -1 15 C-1 13.68 -1 12.36 -1 11 C-1.66 10.01 -2.32 9.02 -3 8 C-3.99 8 -4.98 8 -6 8 C-6.33 7.01 -6.66 6.02 -7 5 C-7.66 5 -8.32 5 -9 5 C-8.67 4.01 -8.34 3.02 -8 2 C-7.05125 2.04125 -6.1025 2.0825 -5.125 2.125 C-1.89755144 2.34973818 -1.89755144 2.34973818 0 0 Z " fill="#848484" transform="translate(183,269)"/>
<path d="M0 0 C0.33 0 0.66 0 1 0 C1.02690844 2.62506802 1.04679404 5.24986173 1.0625 7.875 C1.07087891 8.62136719 1.07925781 9.36773437 1.08789062 10.13671875 C1.11328125 15.7734375 1.11328125 15.7734375 0 18 C-0.66 17.67 -1.32 17.34 -2 17 C-1.67 16.34 -1.34 15.68 -1 15 C-1.639375 15.165 -2.27875 15.33 -2.9375 15.5 C-6.97586652 16.15932515 -10.91807258 16.08003779 -15 16 C-15 15.01 -15 14.02 -15 13 C-13.39743892 12.49487756 -11.79288208 11.99608373 -10.1875 11.5 C-9.29417969 11.2215625 -8.40085938 10.943125 -7.48046875 10.65625 C-5 10 -5 10 -2 10 C-2 9.34 -2 8.68 -2 8 C-2.66 7.67 -3.32 7.34 -4 7 C-3.01 7 -2.02 7 -1 7 C-0.67 4.69 -0.34 2.38 0 0 Z " fill="#1F1F1F" transform="translate(194,435)"/>
<path d="M0 0 C8.43353335 0.79896632 15.97826708 8.4296671 21.62890625 14.32421875 C23.5592267 16.68349929 24.83687592 19.1948184 26 22 C25.34 22.66 24.68 23.32 24 24 C23.071875 22.2984375 23.071875 22.2984375 22.125 20.5625 C16.77415496 12.03742485 8.8697259 6.43486295 0 2 C0 5.96 0 9.92 0 14 C-0.33 14 -0.66 14 -1 14 C-1.02685938 11.85423363 -1.04633088 9.70837355 -1.0625 7.5625 C-1.07410156 6.36753906 -1.08570313 5.17257812 -1.09765625 3.94140625 C-1 1 -1 1 0 0 Z " fill="#1C150C" transform="translate(193,276)"/>
<path d="M0 0 C1.32 0 2.64 0 4 0 C6.67927341 4.01891012 6.15601248 6.24161923 6 11 C5.67 11 5.34 11 5 11 C4.34 8.03 3.68 5.06 3 2 C-0.81668061 4.54445374 -2.0353849 7.66950828 -3.9375 11.6875 C-6.45077047 16.91258447 -9.06808469 21.99541078 -12 27 C-12.88621569 24.55077165 -13.12639897 23.35652665 -12.24316406 20.86523438 C-11.83807617 20.11564453 -11.43298828 19.36605469 -11.015625 18.59375 C-10.57476562 17.76746094 -10.13390625 16.94117188 -9.6796875 16.08984375 C-9.20789063 15.23519531 -8.73609375 14.38054687 -8.25 13.5 C-7.79367187 12.64535156 -7.33734375 11.79070312 -6.8671875 10.91015625 C-2.3537711 2.54859581 -2.3537711 2.54859581 0 0 Z " fill="#222222" transform="translate(325,447)"/>
<path d="M0 0 C0.33 0 0.66 0 1 0 C1.66 4.29 2.32 8.58 3 13 C-0.3 13.33 -3.6 13.66 -7 14 C-5.56032356 8.76481294 -3.18303389 4.36973991 0 0 Z " fill="#F6F6F6" transform="translate(207,401)"/>
<path d="M0 0 C3 1 3 1 4.3503418 3.23730469 C4.79547119 4.20571289 5.24060059 5.17412109 5.69921875 6.171875 C6.18583984 7.22890625 6.67246094 8.2859375 7.17382812 9.375 C7.67333984 10.48875 8.17285156 11.6025 8.6875 12.75 C9.19861328 13.84828125 9.70972656 14.9465625 10.23632812 16.078125 C14.32973804 25.08471985 14.32973804 25.08471985 14 30 C11.56710443 26.98129994 9.9134588 23.95043258 8.30078125 20.4296875 C7.81416016 19.36878906 7.32753906 18.30789063 6.82617188 17.21484375 C6.32666016 16.11269531 5.82714844 15.01054687 5.3125 13.875 C4.54583008 12.21017578 4.54583008 12.21017578 3.76367188 10.51171875 C0 2.26078521 0 2.26078521 0 0 Z " fill="#1B1B1B" transform="translate(220,438)"/>
<path d="M0 0 C0.66 0 1.32 0 2 0 C0.64875335 3.77138991 -1.06970816 6.71424789 -3.4375 9.9375 C-7.09947931 15.06883899 -10.0684327 19.66534238 -11 26 C-11.99 25.67 -12.98 25.34 -14 25 C-11.35746942 15.5179785 -6.49006198 7.40959848 0 0 Z " fill="#1B1B1B" transform="translate(131,372)"/>
<path d="M0 0 C0.33 0 0.66 0 1 0 C1.45916305 8.13738953 1.63665178 15.94484775 -3 23 C-5.140625 24.26953125 -5.140625 24.26953125 -7 25 C-6.70222656 24.28457031 -6.40445313 23.56914062 -6.09765625 22.83203125 C-3.34304248 15.72493165 -1.83874076 8.54866686 -1 1 C-0.67 0.67 -0.34 0.34 0 0 Z " fill="#0C0C0C" transform="translate(702,446)"/>
<path d="M0 0 C0.33 0 0.66 0 1 0 C1.07476562 1.00160156 1.14953125 2.00320313 1.2265625 3.03515625 C1.94627675 10.82391167 2.69914731 16.74358213 9 22 C9.66 22.66 10.32 23.32 11 24 C10.01 24.33 9.02 24.66 8 25 C6.68485396 23.54405245 5.37296283 22.08516421 4.0625 20.625 C3.33160156 19.81289063 2.60070312 19.00078125 1.84765625 18.1640625 C-1.27389128 14.50795821 -1.13544239 12.19401088 -1.125 7.4375 C-1.12757812 6.26058594 -1.13015625 5.08367187 -1.1328125 3.87109375 C-1 1 -1 1 0 0 Z " fill="#0E0E0E" transform="translate(118,396)"/>
<path d="M0 0 C0.33 0.66 0.66 1.32 1 2 C1.66 2 2.32 2 3 2 C3.21327923 3.52850113 3.42595143 5.05708798 3.63671875 6.5859375 C3.92347239 8.49146168 4.2462506 10.39156378 4.58203125 12.2890625 C4.78183594 13.45179688 4.98164063 14.61453125 5.1875 15.8125 C5.38730469 16.93269531 5.58710938 18.05289062 5.79296875 19.20703125 C5.86128906 20.12871094 5.92960938 21.05039062 6 22 C5.34 22.66 4.68 23.32 4 24 C3.72285156 22.81921875 3.44570312 21.6384375 3.16015625 20.421875 C2.7942857 18.86457984 2.42839946 17.30728837 2.0625 15.75 C1.88009766 14.97269531 1.69769531 14.19539063 1.50976562 13.39453125 C1.24389648 12.26337891 1.24389648 12.26337891 0.97265625 11.109375 C0.81031494 10.41811523 0.64797363 9.72685547 0.48071289 9.01464844 C0.15341702 7.64296457 -0.21658506 6.28093422 -0.62329102 4.93066406 C-1 3 -1 3 0 0 Z " fill="#332D24" transform="translate(198,349)"/>
<path d="M0 0 C0.66 0 1.32 0 2 0 C3.03296044 2.95424015 4.04926955 5.91394073 5.0625 8.875 C5.35705078 9.71675781 5.65160156 10.55851562 5.95507812 11.42578125 C6.22900391 12.23144531 6.50292969 13.03710938 6.78515625 13.8671875 C7.17006226 14.98262939 7.17006226 14.98262939 7.56274414 16.12060547 C8 18 8 18 7 20 C3.75084932 17.38392166 2.97606237 14.49008026 1.8125 10.5625 C1.29623047 8.86287109 1.29623047 8.86287109 0.76953125 7.12890625 C0 4 0 4 0 0 Z " fill="#2B2B2B" transform="translate(244,491)"/>
<path d="M0 0 C2.71608315 2.34865546 2.97698587 2.80931149 3.4375 6.625 C3.28049262 11.59382173 1.25576176 15.64960233 -1 20 C-1.66 19.67 -2.32 19.34 -3 19 C-1.125 13.25 -1.125 13.25 0 11 C0.07033769 9.12620395 0.0843022 7.24998898 0.0625 5.375 C0.04896484 3.87066406 0.04896484 3.87066406 0.03515625 2.3359375 C0.02355469 1.56507813 0.01195312 0.79421875 0 0 Z " fill="#232323" transform="translate(155,334)"/>
<path d="M0 0 C4.51020195 0.38658874 7.38429295 2.39332748 11 5 C9.4375 5.75 9.4375 5.75 7 6 C4.49713591 4.86915563 2.32992278 3.47860484 0 2 C0 5.96 0 9.92 0 14 C-0.33 14 -0.66 14 -1 14 C-1.02685938 11.85423363 -1.04633088 9.70837355 -1.0625 7.5625 C-1.07410156 6.36753906 -1.08570313 5.17257812 -1.09765625 3.94140625 C-1 1 -1 1 0 0 Z " fill="#3B2D18" transform="translate(193,276)"/>
<path d="M0 0 C2.00841268 0.01421885 4.01537247 0.13420475 6.01953125 0.265625 C6.34953125 1.585625 6.67953125 2.905625 7.01953125 4.265625 C6.07078125 4.224375 5.12203125 4.183125 4.14453125 4.140625 C0.91708269 3.91588682 0.91708269 3.91588682 -0.98046875 6.265625 C-2.30046875 5.605625 -3.62046875 4.945625 -4.98046875 4.265625 C-3.72152968 1.74774686 -2.88459378 0.38688832 0 0 Z " fill="#D7D7D7" transform="translate(181.98046875,265.734375)"/>
<path d="M0 0 C1.4540625 0.0309375 1.4540625 0.0309375 2.9375 0.0625 C3.5 2 3.5 2 3.9375 4.0625 C2.9375 5.0625 2.9375 5.0625 -0.125 5.125 C-1.094375 5.104375 -2.06375 5.08375 -3.0625 5.0625 C-3.625 3.125 -3.625 3.125 -4.0625 1.0625 C-3.0625 0.0625 -3.0625 0.0625 0 0 Z " fill="#272727" transform="translate(182.0625,286.9375)"/>
<path d="M0 0 C0.66 0.33 1.32 0.66 2 1 C2.484375 2.92578125 2.484375 2.92578125 2.75 5.3125 C2.84796875 6.09238281 2.9459375 6.87226563 3.046875 7.67578125 C2.99392264 10.30133568 2.32990442 11.76473757 1 14 C0.01 13.67 -0.98 13.34 -2 13 C-1.67 12.34 -1.34 11.68 -1 11 C-0.7724985 9.12943209 -0.59037189 7.25314042 -0.4375 5.375 C-0.35371094 4.37210937 -0.26992187 3.36921875 -0.18359375 2.3359375 C-0.12300781 1.56507813 -0.06242188 0.79421875 0 0 Z " fill="#352D22" transform="translate(218,298)"/>
<path d="M0 0 C1 3 1 3 0.00390625 5.48046875 C-0.47175781 6.37378906 -0.94742188 7.26710938 -1.4375 8.1875 C-1.91058594 9.08855469 -2.38367188 9.98960937 -2.87109375 10.91796875 C-3.24363281 11.60503906 -3.61617188 12.29210937 -4 13 C-4.66 12.67 -5.32 12.34 -6 12 C-5.43958106 7.23643901 -3.41302403 3.41302403 0 0 Z " fill="#070707" transform="translate(104,357)"/>
<path d="M0 0 C0.99 0.33 1.98 0.66 3 1 C-1.23513217 4.96189783 -5.547001 6.43181728 -11 8 C-11 7.01 -11 6.02 -11 5 C-9.93458984 4.58427734 -9.93458984 4.58427734 -8.84765625 4.16015625 C-7.46900391 3.61681641 -7.46900391 3.61681641 -6.0625 3.0625 C-5.14597656 2.70285156 -4.22945312 2.34320313 -3.28515625 1.97265625 C-1.07581467 1.2003782 -1.07581467 1.2003782 0 0 Z " fill="#261F15" transform="translate(215,312)"/>
<path d="M0 0 C0.33 0 0.66 0 1 0 C1.66 5.94 2.32 11.88 3 18 C0 16 0 16 -0.546875 13.57421875 C-0.61390625 12.62160156 -0.6809375 11.66898437 -0.75 10.6875 C-0.82734375 9.74261719 -0.9046875 8.79773438 -0.984375 7.82421875 C-0.99967476 5.05878633 -0.64476622 2.68164133 0 0 Z " fill="#303030" transform="translate(209,397)"/>
<path d="M0 0 C4.62 0 9.24 0 14 0 C14 0.99 14 1.98 14 3 C8.80790596 3.21192221 4.873261 2.5912689 0 1 C0 0.67 0 0.34 0 0 Z " fill="#D6D6D6" transform="translate(154,247)"/>
<path d="M0 0 C0 0.66 0 1.32 0 2 C-0.99 2 -1.98 2 -3 2 C-2.484375 2.763125 -1.96875 3.52625 -1.4375 4.3125 C-0.963125 5.199375 -0.48875 6.08625 0 7 C-0.33 7.99 -0.66 8.98 -1 10 C-2.32 10 -3.64 10 -5 10 C-5 7 -5 4 -5 1 C-3 0 -3 0 0 0 Z " fill="#252525" transform="translate(187,274)"/>
<path d="M0 0 C1.32 0 2.64 0 4 0 C6.67927341 4.01891012 6.15601248 6.24161923 6 11 C5.67 11 5.34 11 5 11 C4.34 8.03 3.68 5.06 3 2 C1.35 3.32 -0.3 4.64 -2 6 C-2.33 5.34 -2.66 4.68 -3 4 C-1.75 2 -1.75 2 0 0 Z " fill="#131313" transform="translate(325,447)"/>
<path d="M0 0 C0.66 0 1.32 0 2 0 C2.33 5.61 2.66 11.22 3 17 C0.55160412 13.32740617 -1 10.45351799 -1 6 C-0.34 6 0.32 6 1 6 C0.67 4.02 0.34 2.04 0 0 Z " fill="#090909" transform="translate(195,335)"/>
<path d="M0 0 C4.23429756 1.31061591 8.07407404 2.94356259 12 5 C11.67 5.99 11.34 6.98 11 8 C7.04 6.02 3.08 4.04 -1 2 C-0.67 1.34 -0.34 0.68 0 0 Z " fill="#24201A" transform="translate(201,258)"/>
<path d="M0 0 C0.99 0.33 1.98 0.66 3 1 C2.525625 1.886875 2.05125 2.77375 1.5625 3.6875 C0.20262851 6.57042756 -0.54060386 8.87610623 -1 12 C-1.99 11.67 -2.98 11.34 -4 11 C-3.52269162 9.5410574 -3.04308958 8.08286504 -2.5625 6.625 C-2.29566406 5.81289063 -2.02882813 5.00078125 -1.75390625 4.1640625 C-1 2 -1 2 0 0 Z " fill="#343434" transform="translate(121,386)"/>
<path d="M0 0 C0.33 0 0.66 0 1 0 C2.38766322 6.05525768 1.49118146 9.32010626 -1 15 C-1.66 14.67 -2.32 14.34 -3 14 C-2.01 9.38 -1.02 4.76 0 0 Z " fill="#313131" transform="translate(329,453)"/>
<path d="M0 0 C0.66 0 1.32 0 2 0 C3.19287411 3.87684087 4 6.91621923 4 11 C3.34 11 2.68 11 2 11 C0.80712589 7.12315913 0 4.08378077 0 0 Z " fill="#2B2B2B" transform="translate(193,324)"/>
<path d="M0 0 C0 1.65 0 3.3 0 5 C-0.99 5.495 -0.99 5.495 -2 6 C-2 4.35 -2 2.7 -2 1 C-5.96 1 -9.92 1 -14 1 C-14 0.67 -14 0.34 -14 0 C-12.41773035 -0.19627391 -10.83410729 -0.38165538 -9.25 -0.5625 C-8.36828125 -0.66691406 -7.4865625 -0.77132812 -6.578125 -0.87890625 C-4.11567549 -0.99456676 -2.33461936 -0.73638695 0 0 Z " fill="#2A2A2A" transform="translate(641,194)"/>
<path d="M0 0 C3 1 3 1 4.16796875 3.06640625 C4.50441406 3.89011719 4.84085938 4.71382813 5.1875 5.5625 C5.53167969 6.38878906 5.87585938 7.21507812 6.23046875 8.06640625 C6.48441406 8.70449219 6.73835937 9.34257812 7 10 C6.01 10 5.02 10 4 10 C3.32845067 8.71086513 2.66291141 7.41859796 2 6.125 C1.62875 5.40570313 1.2575 4.68640625 0.875 3.9453125 C0 2 0 2 0 0 Z " fill="#242424" transform="translate(215,428)"/>
<path d="M0 0 C2.7928508 2.34117681 3.4622064 3.95863199 3.8125 7.5625 C3.90144531 8.34753906 3.99039063 9.13257813 4.08203125 9.94140625 C4 12 4 12 2 14 C1.66179834 12.4176994 1.32964061 10.83410625 1 9.25 C0.814375 8.36828125 0.62875 7.4865625 0.4375 6.578125 C0 4 0 4 0 0 Z " fill="#1F1A12" transform="translate(200,359)"/>
<path d="M0 0 C2.24431696 0.4987371 4.25046219 1.10545777 6.375 2 C9.24111871 3.09185475 11.9692039 3.57709822 15 4 C15 4.33 15 4.66 15 5 C9.158256 5.35050464 5.1468192 5.16727335 0 2 C0 1.34 0 0.68 0 0 Z " fill="#131313" transform="translate(152,322)"/>
<path d="M0 0 C0.66 0 1.32 0 2 0 C2.69699552 1.45381897 3.38233866 2.91322953 4.0625 4.375 C4.63677734 5.59316406 4.63677734 5.59316406 5.22265625 6.8359375 C5.47917969 7.55007813 5.73570312 8.26421875 6 9 C5.67 9.66 5.34 10.32 5 11 C1.71779105 9.35889552 1.25429211 6.30677012 0 3 C0 2.01 0 1.02 0 0 Z " fill="#2C2111" transform="translate(239,288)"/>
<path d="M0 0 C3.94139078 1.66751148 6.7892812 4.22710649 10 7 C9.01 7.66 8.02 8.32 7 9 C5.83037314 7.69013727 4.66437056 6.3770374 3.5 5.0625 C2.8503125 4.33160156 2.200625 3.60070312 1.53125 2.84765625 C0 1 0 1 0 0 Z " fill="#171717" transform="translate(119,412)"/>
<path d="M0 0 C-1.5830577 4.2742558 -4.50568404 6.26531794 -8 9 C-8 6 -8 6 -6.7578125 4.39453125 C-5.94957031 3.61142578 -5.94957031 3.61142578 -5.125 2.8125 C-4.59132812 2.28269531 -4.05765625 1.75289063 -3.5078125 1.20703125 C-2 0 -2 0 0 0 Z " fill="#161616" transform="translate(153,353)"/>
<path d="M0 0 C0.66 0 1.32 0 2 0 C4.26396123 2.53563658 5.40312566 4.65750371 6 8 C5.01 8.33 4.02 8.66 3 9 C0 3.375 0 3.375 0 0 Z " fill="#2A2A2A" transform="translate(190,333)"/>
<path d="M0 0 C0 0.66 0 1.32 0 2 C-5.00932754 5.00559652 -8.32723489 5.29341888 -14 5 C-14 4.67 -14 4.34 -14 4 C-12.7625 3.71125 -11.525 3.4225 -10.25 3.125 C-6.80894357 2.2738553 -3.44453207 0 0 0 Z " fill="#363636" transform="translate(175,323)"/>
<path d="M0 0 C-4.95 2.475 -4.95 2.475 -10 5 C-10 4.01 -10 3.02 -10 2 C-3.375 -1.125 -3.375 -1.125 0 0 Z " fill="#191510" transform="translate(221,345)"/>
<path d="M0 0 C2.0625 0.4375 2.0625 0.4375 4 1 C3.6875 2.9375 3.6875 2.9375 3 5 C2.01 5.33 1.02 5.66 0 6 C-0.38218767 4.34385343 -0.71395102 2.67542976 -1 1 C-0.67 0.67 -0.34 0.34 0 0 Z " fill="#A3A3A3" transform="translate(161,275)"/>
<path d="M0 0 C0.66 0.33 1.32 0.66 2 1 C-0.475 5.455 -0.475 5.455 -3 10 C-4 6 -4 6 -2.0625 2.75 C-1.381875 1.8425 -0.70125 0.935 0 0 Z " fill="#111111" transform="translate(316,464)"/>
<path d="M0 0 C3.57104439 1.87949705 5.54744301 3.17053157 7 7 C6.01 7 5.02 7 4 7 C0 2.65714286 0 2.65714286 0 0 Z " fill="#191919" transform="translate(149,327)"/>
<path d="M0 0 C1.19156292 4.76625167 0.3415946 5.87879351 -2 10 C-2.66 9.34 -3.32 8.68 -4 8 C-2.68 5.36 -1.36 2.72 0 0 Z " fill="#15120D" transform="translate(243,317)"/>
<path d="M0 0 C0.66 0 1.32 0 2 0 C1.25 2.875 1.25 2.875 0 6 C-1.98 6.99 -1.98 6.99 -4 8 C-2.68 5.36 -1.36 2.72 0 0 Z " fill="#101010" transform="translate(325,467)"/>
<path d="M0 0 C0.99 0.33 1.98 0.66 3 1 C1.35 2.65 -0.3 4.3 -2 6 C-2.99 5.34 -3.98 4.68 -5 4 C-3.35 3.34 -1.7 2.68 0 2 C0 1.34 0 0.68 0 0 Z " fill="#25221D" transform="translate(187,295)"/>
<path d="M0 0 C0.66 0.33 1.32 0.66 2 1 C1.67 2.32 1.34 3.64 1 5 C1.66 5 2.32 5 3 5 C3 5.66 3 6.32 3 7 C1.68 6.67 0.36 6.34 -1 6 C-1.042721 4.33388095 -1.04063832 2.66617115 -1 1 C-0.67 0.67 -0.34 0.34 0 0 Z " fill="#1D1D1D" transform="translate(339,193)"/>
</svg>
